<svg xmlns="http://www.w3.org/2000/svg" width="371.992" height="89" viewBox="0 0 371.992 89"><path fill="#58595B" d="M33.018 74.877H50.41v.47H33.018z"/><path fill="#ABC81E" d="M90.734 51.25c0 4.372-3.264 7.917-7.29 7.917-4.022 0-7.286-3.544-7.286-7.916 0-4.37 3.264-7.91 7.287-7.91 4.026 0 7.29 3.55 7.29 7.92"/><path fill="#80A01B" d="M90.74 51.25c0-4.37-3.25-7.915-7.286-7.915v15.832c4.035 0 7.287-3.544 7.287-7.916"/><path fill="#625F2C" d="M82.522 56.077h2.018V65.7h-2.018z"/><path fill="#BEE735" d="M98.678 59.192S79.574 63.8 69.95 69.076c-9.623 5.277-10.864 7.334-10.864 7.334l35.854-1.552s4.048-8.06 3.738-15.666"/><path fill="#A2DADB" d="M20.2 81.87C12.91 73.82 8.47 63.145 8.47 51.43c0-25.047 20.305-45.35 45.352-45.35 25.048 0 45.35 20.303 45.35 45.35 0 9.412-2.865 18.153-7.774 25.4-1.193 1.76 1.81 1.643 2.8.08 4.664-7.373 7.364-16.11 7.364-25.48 0-26.365-21.374-47.738-47.74-47.738-26.363 0-47.737 21.373-47.737 47.738 0 11.06 3.76 21.237 10.07 29.33"/><path fill="#E6E6E6" d="M9.107 77.34l-2.842-.077s.31-.326.595-.543c.47-.362.86-.578.86-.578l1.387-.042v1.24z"/><path fill="#999" d="M13.232 74.687c-5.285 0-7.23 4.188-8.668 8.856h92.082v-8.856H13.232z"/><path fill="#999" d="M95.043 74.687c5.402 0 7.39 4.188 8.858 8.856H36.47l-.533-8.856h59.108z"/><path fill="#E6E6E6" d="M17.49 77.807h6.207v1.242H17.49zm14.59 0h6.207v1.242H32.08zm14.59 0h6.207v1.242H46.67zm14.588 0h6.21v1.242h-6.21zm14.59 0h6.21v1.242h-6.21zm14.59 0h6.21v1.242h-6.21z"/><path fill="#EDC91B" d="M23.436 49.07c0 2.012-1.63 3.64-3.64 3.64-2.01 0-3.642-1.628-3.642-3.64s1.63-3.64 3.64-3.64c2.013 0 3.642 1.63 3.642 3.64"/><path fill="#EF9E19" d="M16.176 49.07c0 2.012 1.624 3.64 3.64 3.64v-7.28c-2.016 0-3.64 1.63-3.64 3.64"/><path fill="#70C5B0" d="M78.15 26.193c.156-.495.24-1.02.24-1.568 0-2.86-2.317-5.178-5.177-5.178-2.2 0-4.015 1.168-4.764 3.104-.83-.85-2.05-1.19-3.34-1.19-2.34 0-4.27 1.78-4.51 4.06-.13-.01-.26-.02-.39-.02-1.89 0-3.42 1.53-3.42 3.42s1.58 3.37 3.47 3.37h16.71c1.71 0 3.1-1.39 3.1-3.1 0-1.3-.81-2.41-1.94-2.87"/><path fill="#A2DADB" d="M78.15 26.193c.156-.495.24-1.02.24-1.568 0-2.86-2.317-5.178-5.177-5.178-2.2 0-4.015 1.168-4.764 3.104l-.06-.05v9.68h8.59c1.71 0 3.1-1.39 3.1-3.1 0-1.3-.81-2.41-1.94-2.87"/><path fill="#666" d="M18.643 73.804c0 .69-.56 1.25-1.25 1.25s-1.248-.56-1.248-1.25.56-1.25 1.248-1.25c.69.002 1.25.56 1.25 1.25"/><path fill="#E96558" d="M20.404 68.675c-2.174 0-2.885.56-3.934 1.856-.132.17-1.073.77-1.073.77-.32.26-.548.64-.548 1.26v.04c0 .62.43 1.02 1.05 1.02h.02v.02c0-.81.66-1.44 1.47-1.44.81 0 1.47.62 1.47 1.44h2.7v.02c0-.81.65-1.44 1.47-1.44.81 0 1.47.62 1.47 1.44 0 .01-.01 0-.01 0h.32c.62 0 1.2-.4 1.2-1.02v-.04c0-.62-.51-3.88-5.62-3.88"/><path fill="#666" d="M24.28 73.804c0 .69-.558 1.25-1.247 1.25-.69 0-1.25-.56-1.25-1.25s.56-1.25 1.25-1.25c.69.002 1.248.56 1.248 1.25m5.22.24c0 .586-.47 1.062-1.06 1.062-.58 0-1.06-.475-1.06-1.062s.48-1.062 1.06-1.062c.59 0 1.07.476 1.07 1.062"/><path fill="#EF9E19" d="M24.94 48.627h3.88v.93h-3.88zm-14.126 0h4.035v.93h-4.04zm8.538 5.587h.932v4.036h-.932zm0-14.124h.932v4.036h-.932zm4.455 12.217l2.832 2.832-.69.68-2.84-2.83zm-9.957-9.955l2.83 2.832-.686.686-2.832-2.832zm2.745 10.642l-2.83 2.832-.688-.687 2.833-2.84zm9.955-9.958l-2.83 2.83-.688-.685 2.832-2.83z"/><path fill="#ABC81E" d="M2737.33 1731.313c0 28.166-21.02 51-46.95 51s-46.952-22.834-46.952-51 21.02-51 46.95-51 46.952 22.833 46.952 51"/><path fill="#80A01B" d="M2737.38 1731.313c0-28.166-20.952-51-46.952-51v102c26 0 46.95-22.834 46.95-51"/><path fill="#625F2C" d="M2684.428 1762.405h13v62h-13z"/><path fill="#BEE735" d="M2825.515 1775.477s-123.087 29.68-185.087 63.68-70 47.25-70 47.25l231-10c0-.002 26.087-51.93 24.087-100.93"/><path fill="#A2DADB" d="M2368.918 1983.405h30.203c-92.11-49.166-154.81-146.22-154.81-257.93 0-161.372 130.82-292.19 292.19-292.19 161.38 0 292.19 130.818 292.19 292.19 0 111.71-62.69 208.764-154.81 257.93h30.21c84.27-54.86 139.99-149.88 139.99-257.93 0-169.866-137.7-307.57-307.57-307.57s-307.57 137.704-307.57 307.57c0 108.05 55.73 203.07 139.99 257.93"/><path fill="#B1B899" d="M2538.428 1615.405h6v15h-6z"/><path fill="#937B5F" d="M2531.428 1625.405h16v25h-16z"/><path fill="#D5F645" d="M2211.428 1933.405h614v-57h-549.2c-63.55 0-64.8 57-64.8 57"/><path fill="#9BBE26" d="M2211.428 1933.405h614v57h-549.2c-64.8 0-64.8-57-64.8-57"/><path fill="#AB8652" d="M2563.428 1789.405h81v90h-81z"/><path fill="#6D5D4D" d="M2573.428 1798.405h14v20h-14zm0 26h14v20h-14zm24-26h14v20h-14zm0 26h14v20h-14zm23-26h14v20h-14zm0 26h14v20h-14zm-47 28h14v20h-14zm24 0h14v20h-14zm23 0h14v20h-14z"/><path fill="#666" d="M2560.428 1771.405h91v18h-91z"/><path fill="#70C5B0" d="M2427.428 1653.405h138v223h-138z"/><path fill="#937B5F" d="M2444.428 1738.405h24v34h-24zm0 45h24v35h-24zm40-45h24v34h-24zm0 45h24v35h-24zm40-45h24v34h-24zm0 45h24v35h-24zm-80-90h24v34h-24zm40 0h24v34h-24zm40 0h24v34h-24zm-80 137h24v35h-24zm40 0h24v35h-24zm40 0h24v35h-24z"/><path fill="#666" d="M2421.428 1655.405h152v6h-152z"/><path fill="#B1B899" d="M2414.428 1645.405h164v11h-164z"/><path fill="#999" d="M2276.227 1876.405c-34.8 0-47.61 14.188-57.07 30h606.272v-30h-549.21z"/><path fill="#E6E6E6" d="M2248.428 1892.405l-18.314-.5s1.992-2.094 3.83-3.5c3.04-2.326 5.545-3.722 5.545-3.722l8.93-.278v8zm54-8h40v8h-40zm94 0h40v8h-40zm94 0h40v8h-40zm94 0h40v8h-40zm94 0h40v8h-40zm94 0h40v8h-40z"/><path fill="#EDC91B" d="M2352.743 1710.265c0 12.954-10.502 23.456-23.457 23.456-12.954 0-23.456-10.5-23.456-23.45s10.502-23.45 23.456-23.45c12.955 0 23.457 10.5 23.457 23.46"/><path fill="#EF9E19" d="M2305.972 1710.265c0 12.954 10.456 23.456 23.456 23.456v-46.91c-13 0-23.456 10.5-23.456 23.46"/><path fill="gray" d="M2751.428 1715.556l13 1.742v-2.893h-13m0 20.317l13 1.742v-4.06h-13m0 21.486l13 1.742v-3.227h-13"/><path fill="#FBB555" d="M2754.67 1743.516c0 3.905 3.167 7.072 7.075 7.072 3.905 0 7.07-3.167 7.07-7.072s-3.165-7.074-7.07-7.074c-3.908 0-7.074 3.168-7.074 7.074"/><path fill="#D65A65" d="M2754.67 1724.452c0 3.908 3.167 7.075 7.075 7.075 3.905 0 7.07-3.167 7.07-7.075 0-3.904-3.165-7.072-7.07-7.072-3.908 0-7.074 3.168-7.074 7.072"/><path fill="#7BB264" d="M2754.67 1764.112c0 3.908 3.167 7.074 7.075 7.074 3.905 0 7.07-3.166 7.07-7.074 0-3.906-3.165-7.072-7.07-7.072-3.908 0-7.074 3.166-7.074 7.072"/><path fill="gray" d="M2773.428 1728.405h5v148h-5z"/><path fill="#666" d="M2760.428 1712.405h18v60h-18z"/><path fill="#70C5B0" d="M2693.25 1562.87c1.012-3.19 1.56-6.582 1.56-10.105 0-18.425-14.933-33.36-33.356-33.36-14.178 0-25.86 7.53-30.69 20-5.314-5.535-13.2-7.666-21.478-7.666-15.092 0-27.51 11.45-29.032 26.14-.817-.1-1.65-.15-2.49-.15-12.15 0-22 9.85-22 22s10.183 21.66 22.333 21.66h107.666c11.047 0 20-8.96 20-20 0-8.4-5.18-15.57-12.514-18.54"/><path fill="#A2DADB" d="M2693.25 1562.87c1.012-3.19 1.56-6.582 1.56-10.105 0-18.425-14.933-33.36-33.356-33.36-14.178 0-25.86 7.53-30.69 20-.11-.11-.225-.214-.335-.324v62.33h55.33c11.04 0 20-8.95 20-20 0-8.39-5.18-15.57-12.52-18.53"/><path fill="#666" d="M2309.86 1869.618c0 4.445-3.603 8.05-8.048 8.05s-8.048-3.605-8.048-8.05c0-4.443 3.603-8.048 8.048-8.048s8.05 3.605 8.05 8.048"/><path fill="#E96558" d="M2321.215 1836.57c-14.017 0-18.586 3.604-25.344 11.956-.85 1.055-6.91 4.926-6.91 4.926-2.06 1.684-3.52 4.13-3.52 8.115v.257c0 3.985 2.81 6.58 6.79 6.58h.14s-.01.19-.01.124c0-5.23 4.24-9.31 9.47-9.31s9.47 4.003 9.47 9.23c0 .064-.01-.044-.01-.044h17.41s-.01.188-.01.123c0-5.23 4.24-9.31 9.47-9.31s9.47 4.003 9.47 9.23c0 .064-.01-.044-.01-.044h2.07c3.99 0 7.76-2.596 7.76-6.58v-.258c0-3.982-3.3-24.996-36.21-24.996"/><path fill="#666" d="M2346.19 1869.618c0 4.445-3.603 8.05-8.048 8.05s-8.05-3.605-8.05-8.05c0-4.443 3.605-8.048 8.05-8.048s8.05 3.605 8.05 8.048m33.576 1.547c0 3.777-3.063 6.84-6.842 6.84-3.777 0-6.842-3.062-6.842-6.84 0-3.78 3.064-6.84 6.842-6.84 3.778 0 6.842 3.06 6.842 6.84"/><path fill="#EDC91B" d="M2416.886 1857.12s-4.376-2.77-4.985-3.52c-4.83-5.974-7.89-8.55-17.92-8.55-1.36 0-2.63.055-3.86.15-1.22-.096-2.5-.15-3.86-.15-10.02 0-13.09 2.576-17.93 8.55-.6.75-5.16 3.52-5.16 3.52-1.47 1.204-2.74 2.954-2.74 5.803v.185c0 2.4 2 4.413 4 4.99v.308h.75c.94-4 4.05-5.922 7.76-5.922s6.82 1.922 7.76 5.922h20.82c.94-4 4.05-5.992 7.76-5.992 3.48 0 6.39 2.173 7.52 5.258 1.6-.876 2.65-2.61 2.65-4.563v-.19c0-2.85-1.07-4.6-2.54-5.81"/><path fill="#666" d="M2416.097 1871.165c0 3.777-3.063 6.84-6.84 6.84-3.78 0-6.843-3.062-6.843-6.84 0-3.78 3.063-6.84 6.842-6.84 3.777 0 6.84 3.06 6.84 6.84"/><path fill="#EF9E19" d="M2362.428 1707.405h25v6h-25zm-91 0h26v6h-26zm55 36h6v26h-6zm0-91h6v26h-6zm28.6 78.69l18.245 18.246-4.424 4.43-18.25-18.24zm-64.13-64.132l18.244 18.245-4.423 4.424-18.25-18.245zm17.798 68.57l-18.244 18.244-4.424-4.424 18.245-18.245zm64.132-64.137l-18.244 18.244-4.422-4.422 18.244-18.244z"/><path fill-rule="evenodd" clip-rule="evenodd" d="M1225.122 2183.5c4.192.14 3.937 4.73 7 6-8.897 25.76.004 51.518 12 67h37c8.39-12.057 16.446-28.397 16-47-.224-9.32-7.762-21.478 3-26 10.968 6.62 10.874 25.988 9 41-2.35 18.817-14.9 36.405-23 47-1.59 46.942 3.326 92.65 3 135-3.645 3.445-15.408 4.534-20 1-3.554-17.896-2.772-38.557-4-60-.22-3.833 2.543-12.135-4-12-5.07 20.93-2.403 49.596-7 71-4.897 5.834-18.56 2.646-22-2 4.247-42.753 6.913-87.087 6-135-16.38-17.006-30.81-53.273-18-84 3.188.855 3.796-.87 5-2zm-129 6c5.723 5.94-2.173 15-4 20-3.58 25.58 8.473 35.527 19 47h39c12.923 14.085 29.973 43.514 28 71-.65 9.08-2.688 23.697-14 25-7.938-6.688.47-17.145 1-26 .825-13.783-5.08-26.22-9-37-3.818 39.82 2.146 78.52 1 119-3.893 2.675-15.783 5.462-19 0-7.88-18.787-.597-52.737-7-73-6.428 2.16-3.646 11.454-4 17-1.05 16.413-2.877 39.232-5 56-5.753 4.857-14.32 2.954-20 0-.38-43.735 6.165-89.15 4-138-9.012-10.632-26.115-24.94-28-45-1.476-15.707 3.453-24.937 10-35 .19-.294 5.212-7.047 8-1z"/><path fill-rule="evenodd" clip-rule="evenodd" d="M1270.122 2252.5c-22.272 4.717-30.44-14.78-21-27 16.193-20.96 46.15 16.625 21 27zm154 0h-16c-3.237-4.424-8.173-7.292-9-12-3.64-20.71 25.784-26.58 33-11v14c-3.067 2.6-5.966 5.368-8 9zm14 73c-4.3 7.286-5.806 18.722 2 23-.62 19.712 1.27 41.938-1 60-4.075 2.773-15.99 3.145-20 0-3.622-21.71 2.28-52.947-3-73-5.288 20.045.614 51.28-3 73-3.767 2.9-11.472 1.862-18 2-6.077-6.958-4-17.97-4-28v-96c-16.58 19.656-27.986 5.44-38-13-5.376-9.898-14.163-22.01-6-28 17.286 4.048 13.712 28.956 28 36 8.394-4.374 13.17-17.167 21-25h40c8.65 10.685 12.825 25.842 17 41-.47 18.53 2.663 40.663-10 47-9.058-2.635-5.755-9.968-5-19zm2-2c-.567-6.116 1.198-19.842-1-21 .567 6.116-1.198 19.843 1 21z"/><path fill-rule="evenodd" clip-rule="evenodd" fill="#FFF" d="M1568.122 2300.5c4.438 5.895.832 19.834 2 29-4.577-5.756-.733-19.934-2-29zm-129 2c2.198 1.158.433 14.884 1 21-2.198-1.157-.433-14.884-1-21z"/><path fill-rule="evenodd" clip-rule="evenodd" d="M1309.122 2473.5c5.677 2.396 10.793 13.195 9 21-3.146 13.7-24.876 15.043-31 4-6.507-11.732 1.706-30.06 22-25zm105 33c-16.798-6.74-10.687-36.13 10-33 18.316 2.773 19.185 38.904-10 33zm90-30c14.593-4.955 23.99 5.313 24 15 .02 21.514-39.415 24.443-33-7 3.01-2.655 4.955-6.378 9-8z"/><path fill-rule="evenodd" clip-rule="evenodd" d="M1568.122 2576.5c8.915-10.335 13.827-24.64 6-37-3.878-6.123-14.767-14.927-21-18-6.392-3.15-15.482-2.742-21-6-2.29-1.35-1.733-4.616-4-5 2.778-14.21 27.274 1.18 36 6 9.784 5.406 22.938 17.737 25 30 2.277 13.546-4.567 30.528-13 38-1.868-.798-3.663-1.67-6-2 .4 10.6 3.36 18.64 4 29 11.644 2.193 22.054-12.42 33-11 6.294.816 12.11 9.073 11 15-1.42 7.566-28.32 17.418-40 19-3.95.536-10.127-.394-14 0-15.79-6.875-12.022-33.31-17-51-12.915 3.605-16.654 23.516-23 37-.082.175-1.79-1.404-2-1-.68 1.315.517 3.6 0 5-2.08 5.64-6.3 11.58-9 17-3.047 6.115-7.198 11.79-8 18-1.862.138-3.343.658-4 2-8.742.076-13.097-4.236-17-9 9.734-25.6 21.837-48.83 34-72-4.206-21.794-14.72-37.28-21-57 4.366-10.633 18.954-11.046 29-16-.73 6.063 4.888 5.78 6 10 27.054 1.947 24.068 33.932 36 51v8zm-247-67c9.075 9.115 21.675 28.623 24 47 2.03 16.06 1.024 40.653-13 38-3.82-14.1 4.314-39.257-5-52-1.805 16.65-1 37.415-1 59 0 16.936 4.542 53.458-2 60-4.38 4.38-16.867 2.625-19-2-6.418-13.918 2.273-57.33-4-71-5.307 20.027.64 51.308-3 73-4.726 2.854-15.23 2.77-20 0v-127c-11.887 5.063-27.095 16.11-44 18-7.003.784-20.327 2.227-23-6 .842-8.536 10.054-5.268 16-6 23.8-2.93 41.59-14.98 53-29 .733-.934 1.818-1.515 3-2h38z"/><path fill-rule="evenodd" clip-rule="evenodd" d="M1501.122 2544.5c16.744 15.05 4.576 42.988-20 42-.297-2.036-2.003-2.663-3-4 3.972-13.135 21.646-12.346 23-31v-7z"/><path fill-rule="evenodd" clip-rule="evenodd" fill="#FFF" d="M1445.122 2546.5c3.16.19 2.32 7.387 1 9-2.27-1.063-.38-6.285-1-9zm104-271c-1.138 2.862-3.138 4.862-6 6 1.138-2.862 3.138-4.862 6-6z"/><path fill-rule="evenodd" clip-rule="evenodd" d="M1138.122 2252.5c-15.896 2.645-25.122-5.1-25-16 .155-13.82 21.384-23.447 31-11 6.488 8.4 2.79 20.538-6 27zm409-7c-4.563-1.23.093 6.76-3 7-12.86 1.332-18.1-8.148-18-16 .246-19.103 30.944-22.23 34-2-2.594 5.406-1.146 14.855-3 21 1.733 2.417 5.04 1.097 9 3 6.563 11.088 15.528 29.368 17 48 1.093 13.837.876 29.95-8 38-4.866 1.532-3.765-2.902-7-3-1.188 21.812 2.468 48.468-2 67-4.624 3.162-16.247 2.625-21 0-1.32-23.678 2.65-52.65-2-73-4.65 19.684-.68 47.987-2 71-5.028 6.127-18.448 5.766-23 0 1.32-37.013-2.648-79.314 2-113-13.496-6.583-3.66-28.88 2-37 7.02.982 18.18-2.18 22 2 .955-4.378 3.705-6.96 3-13zm-4 36c2.862-1.138 4.862-3.138 6-6-2.862 1.138-4.862 3.138-6 6zm27 48c-1.168-9.166 2.438-23.105-2-29 1.267 9.066-2.577 23.244 2 29zm-125 254c-1.23 26.105 2.523 57.19-2 80-5.718 2.522-13.282 2.522-19 0-5.085-20.914.485-52.484-3-75-5.328 8.714-3 22.822-3 36 0 13.4.798 27.127-1 38-3.905 3.698-15.45 4.652-18-1-4.61-20.81-.71-50.352-2-75-5.01-6.87-13.102-13.358-15-24-3.21-17.997 3.85-42.982 17-50 6.77-3.61 30.804-5.908 42-1 6.054 2.654 16.213 19.117 18 30 2.837 17.28-3.51 34.66-14 42zm1-28c1.32-1.613 2.16-8.81-1-9 .62 2.715-1.27 7.937 1 9z"/><path fill="#FFF" d="M40.053 68.278h.24v3.845h-.24zm0-6.262h.24v3.845h-.24z"/><path fill="#70C5B0" d="M35.195 40.03h21.418v34.612H35.195z"/><path fill="#937B5F" d="M37.833 53.223h3.725V58.5h-3.725zm0 6.984h3.725v5.432h-3.725zm6.207-6.984h3.727V58.5H44.04zm0 6.984h3.727v5.432H44.04zm6.21-6.984h3.725V58.5H50.25zm0 6.984h3.725v5.432H50.25zm-12.417-13.97h3.725v5.278h-3.725zm6.207 0h3.727v5.278H44.04zm6.21 0h3.725v5.278H50.25z"/><path fill="#666" d="M34.263 40.34h23.592v.93H34.263z"/><path fill="#B1B899" d="M33.177 38.788H58.63v1.708H33.178z"/><path fill="#E96558" d="M68.705 53.514h1.643v2.493h-1.643zm.235-.57h.226v.563h-.227z"/><path fill="#E96558" d="M68.902 52.898h.3v.068h-.3zm.51.046h.228v.563h-.228z"/><path fill="#E96558" d="M69.376 52.898h.3v.068h-.3zm.486.046h.227v.563h-.23z"/><path fill="#E96558" d="M69.826 52.898h.3v.068h-.3zm-1.312.558h2.025v.117h-2.03zm-12.782 5.24h16.33V74.64H55.73z"/><path fill="#6D6E70" d="M72.578 58.86H55.215l.39-3.716H72.19"/><path fill="#AA221B" d="M62.027 66.902h-4.3l.312.91h3.67m9.09-.91h-5.39l.33.902h4.72m-8.44-7.164h-4.3l.31.908h3.67"/><path fill="#97CCE9" d="M66.294 61.547h3.675v3.71h-3.68z"/><path fill="#FFF" d="M66.294 61.547h.24v3.845h-.24zm3.434 0h.24v3.845h-.24z"/><path fill="#FFF" d="M66.294 61.547h3.48v.362h-3.48zm0 3.403h3.675v.53h-3.68z"/><path fill="#97CCE9" d="M58.068 61.547h3.676v3.71h-3.676z"/><path fill="#FFF" d="M58.068 61.547h.24v3.845h-.24zm3.432 0h.244v3.845H61.5z"/><path fill="#FFF" d="M58.067 61.547h3.48v.362h-3.48zm0 3.403h3.677v.53h-3.676z"/><path fill="#97CCE9" d="M58.068 67.887h3.676v3.71h-3.676z"/><path fill="#FFF" d="M58.068 67.887h.24v3.845h-.24zm3.432 0h.244v3.845H61.5z"/><path fill="#FFF" d="M58.067 67.887h3.48v.362h-3.48zm0 3.403h3.677v.53h-3.676z"/><path fill="#AA221B" d="M70.252 60.64H65.95l.315.908h3.674"/><path fill="#E54D4C" d="M66.307 68.156h3.59v6.354h-3.59z"/><path fill="#666" d="M47.422 68.156h3.59v6.354h-3.59z"/><path fill="#FFF" d="M65.742 68.156h.564v6.354h-.564zm4.154 0h.565v6.354h-.56z"/><path fill="#FFF" d="M65.742 67.804h4.72v.79h-4.72z"/><path fill="#F1F1F2" d="M69.983 71.93h.392v1.824h-.392zm-4.153 0h.39v1.824h-.39zm4.153-2.933h.392v1.824h-.392zm-4.153 0h.39v1.825h-.39zm-.088-.913h4.72v.246h-4.72z"/><path fill="#6D6E70" d="M65.288 74.26h5.688v.72h-5.688z"/><path fill="#259373" d="M46.353 74.26h5.688v.72h-5.68z"/><path fill="#666" d="M37.604 45.87h4.19v.37h-4.19zm6.206 0H48v.37h-4.19zm6.15 0h4.19v.37h-4.19zm-12.356 6.96h4.19v.366h-4.19zm6.206 0H48v.366h-4.19zm6.15 0h4.19v.366h-4.19zm-12.356 7.01h4.19v.367h-4.19zm6.206 0H48v.367h-4.19zm6.15 0h4.19v.367h-4.19z"/><path fill="#259373" d="M51.01 67.887h.306v6.733h-.305zm-3.893 0h.306v6.733h-.306z"/><path fill="#259373" d="M46.822 67.893h4.874v.306h-4.874z"/><path fill-rule="evenodd" clip-rule="evenodd" fill="#FFF" d="M70.52 71.067c.124.3-.126.672-.155.99-.236-.153-.454-.327-.496-.677.16-.153.45-.186.65-.313z"/><path fill="#EDC91B" d="M35.254 71.864s-.68-.43-.773-.546c-.75-.927-1.22-1.327-2.78-1.327-.21 0-.41.01-.6.03-.19-.01-.39-.02-.6-.02-1.55 0-2.03.4-2.78 1.33-.09.12-.8.55-.8.55-.23.19-.42.46-.42.9v.03c0 .37.31.69.62.78v.05h.12c.15-.62.63-.92 1.21-.92s1.06.3 1.21.92h3.23c.15-.62.63-.93 1.21-.93.54 0 .99.34 1.17.82.25-.13.42-.4.42-.71v-.03c0-.44-.16-.71-.39-.9"/><path fill="#666" d="M35.132 74.044c0 .586-.476 1.062-1.062 1.062-.587 0-1.063-.475-1.063-1.062s.476-1.062 1.063-1.062c.586 0 1.062.476 1.062 1.062"/><g fill="#70C5B0"><path d="M108.906 56.988c-.043-.042-.08-.084-.11-.126-.032-.042-.07-.084-.11-.127-.255-.254-.377-.523-.366-.81.01-.284.096-.538.254-.76.158-.222.37-.39.635-.507.26-.116.53-.122.8-.016.34-.042.66.037.96.238.3.2.46.523.46.967 1.08 1.29 2.09 2.56 3.04 3.806.95 1.248 1.81 2.57 2.6 3.964.36.634.69 1.285 1 1.95.3.667.59 1.34.87 2.015 0-.867.03-1.723.11-2.57.07-.844.16-1.71.27-2.6.23-1.818.46-3.632.68-5.44.22-1.807.34-3.64.36-5.502 0-.4.13-.703.39-.904.26-.2.55-.3.87-.3.32 0 .61.1.87.3.26.2.39.502.39.904-.02 1.903-.15 3.78-.4 5.63s-.48 3.706-.72 5.566c-.1.95-.19 1.887-.25 2.807-.06.92-.08 1.855-.06 2.807.02.91.05 1.808.08 2.696.03.888.02 1.787-.02 2.696-.02.317-.12.576-.3.777-.18.2-.39.33-.65.39s-.51.05-.76-.03c-.25-.09-.46-.26-.63-.51-.49-.74-.9-1.52-1.24-2.33-.34-.82-.66-1.63-.95-2.43-.3-.78-.6-1.54-.92-2.27-.32-.73-.68-1.46-1.08-2.18-.53-.95-1.09-1.86-1.7-2.73-.61-.87-1.24-1.72-1.92-2.54v2.55s.02 1.68.06 2.55c.04 1.52.14 3.03.31 4.52.17 1.49.35 2.98.54 4.49.04.36-.08.66-.37.9-.28.24-.57.36-.87.36-.38 0-.675-.12-.89-.37-.21-.25-.34-.55-.38-.91-.21-1.5-.4-3-.57-4.49s-.27-3-.314-4.52c-.04-1.33-.06-2.66-.05-3.98.01-1.32.02-2.65.02-3.98zm15.892 6.282c.4-.55.883-1.037 1.443-1.46.56-.423 1.16-.756 1.8-1 .64-.242 1.29-.37 1.97-.38.68-.01 1.36.122 2.03.396.66.254 1.25.598 1.78 1.03.53.435.94.99 1.24 1.666.24.508.37 1.058.42 1.65.04.59-.11 1.13-.47 1.617-.31.44-.7.78-1.15 1.01-.45.23-.94.4-1.46.5-.51.1-1.04.16-1.58.16s-1.05-.01-1.54-.04c-.55-.02-1.09-.07-1.63-.13L126 68.1c.17.95.507 1.8 1.015 2.54s1.198 1.3 2.066 1.68c.24.08.42.15.54.19.07.02.12.04.18.05.06.01.11.01.18.01l.43.05s.23.003.34-.018c.15-.02.25-.038.3-.048s.11-.026.18-.05c.23-.06.44-.135.62-.22.18-.084.4-.22.65-.41.13-.107.3-.266.51-.478.21-.21.39-.4.54-.57.21-.297.47-.5.78-.6.31-.11.62-.068.94.122.28.17.47.43.59.78.12.35.07.67-.14.97-.61.82-1.34 1.53-2.17 2.11-.83.58-1.79.89-2.87.93-.86.044-1.7-.11-2.5-.46-.8-.35-1.51-.82-2.12-1.41-.76-.74-1.36-1.594-1.81-2.567-.44-.97-.68-1.97-.73-2.98-.19-.15-.33-.33-.42-.55-.09-.22-.12-.45-.09-.68.03-.23.11-.45.24-.65s.32-.33.57-.4c.24-.78.6-1.51 1.08-2.19zm7.612.76c-.233-.296-.593-.56-1.08-.793-.4-.17-.87-.254-1.41-.254s-1 .095-1.38.286c-.486.23-.92.55-1.3.96-.38.41-.688.87-.92 1.38l1.522.19c.507.06 1.015.1 1.522.12h.824s.55-.01.825-.03c.084 0 .163-.01.237-.02s.153-.02.238-.02c.19-.05.333-.07.428-.08.096-.01.195-.04.302-.08.084-.02.19-.06.317-.1.105-.04.17-.08.19-.1.02-.02.052-.05.095-.07l.095-.38c-.042-.09-.068-.17-.08-.24-.01-.08-.036-.14-.078-.21-.02-.06-.07-.16-.143-.29-.072-.13-.14-.23-.204-.32z"/><path d="M146.43 64.505c.402 0 .704.127.905.38.2.254.3.54.3.857 0 .317-.1.608-.3.873-.2.265-.503.396-.904.396-.5.03-1.01.02-1.5-.01s-.99-.07-1.47-.11c.02 1.67 0 3.34-.08 5.01-.07 1.67-.25 3.33-.52 4.98-.04.36-.23.63-.57.79-.34.17-.66.2-.98.1-.36-.1-.6-.3-.74-.58-.14-.28-.17-.61-.11-.96.26-1.6.4-3.21.43-4.82s.03-3.22-.01-4.85c-.8-.12-1.61-.26-2.44-.39-.82-.14-1.64-.26-2.44-.37-.36-.04-.62-.24-.77-.58-.16-.35-.2-.67-.11-.97.1-.36.31-.61.6-.74.3-.13.62-.18.95-.14.7.11 1.4.22 2.1.34.7.12 1.41.23 2.13.34-.02-.11-.03-.27-.03-.48 0-1.9-.01-3.78-.02-5.64-.01-1.86.08-3.74.27-5.64.04-.34.18-.63.4-.89s.51-.38.87-.38c.32 0 .62.13.9.38s.41.55.37.89c-.21 2.03-.31 4.04-.3 6.04.01 2 .03 4.02.08 6.08.51.04 1.02.08 1.52.11s1.02.05 1.52.05zm20.745-1.14c-.127.59-.275 1.18-.444 1.76s-.35 1.157-.57 1.73c-.23.59-.45 1.177-.66 1.76-.21.58-.46 1.145-.76 1.695-.27.53-.57 1.042-.89 1.54-.31.496-.59 1.02-.82 1.57-.21.486-.42.966-.65 1.442-.22.476-.5.925-.84 1.348-.17.21-.36.338-.57.38-.21.043-.42.027-.62-.047s-.39-.196-.57-.365c-.18-.17-.3-.35-.36-.54-.36-.993-.62-1.992-.79-2.996-.17-1.004-.39-2.014-.66-3.03-.06-.295-.13-.58-.2-.855-.07-.274-.15-.55-.24-.825-.17.487-.35.962-.55 1.427-.2.46-.42.94-.65 1.42-.25.48-.51.98-.76 1.49s-.52 1-.79 1.49c-.23.49-.5.93-.82 1.35-.31.41-.69.76-1.14 1.06-.36.23-.72.25-1.09.06s-.62-.47-.74-.83c-.31-.95-.6-1.92-.85-2.9l-.76-2.95c-.25-.99-.52-1.96-.79-2.92s-.59-1.92-.95-2.87c-.13-.32-.09-.63.11-.94.2-.31.45-.52.75-.62.36-.11.68-.06.97.13s.48.44.59.76c.59 1.52 1.08 3.05 1.46 4.6.38 1.54.78 3.1 1.2 4.66l.19-.38.68-1.37.68-1.37c.26-.49.48-.99.69-1.51.2-.52.39-1.04.56-1.57.17-.51.33-1.02.48-1.53.15-.51.24-1.04.29-1.59.02-.34.15-.61.37-.83.22-.21.48-.34.76-.38.29-.04.56 0 .81.14.26.14.44.38.54.74.3 1.08.61 2.14.92 3.2.32 1.06.61 2.12.86 3.2.107.45.2.89.287 1.32.08.44.18.86.28 1.29.23-.51.5-1 .81-1.48.3-.48.58-.97.84-1.47.46-.96.87-1.96 1.22-3s.63-2.09.84-3.13c.06-.36.26-.62.59-.79.32-.17.65-.2.97-.09.36.1.61.31.76.6.145.29.19.61.125.95zm8.055-2.412c.678-.084 1.386-.11 2.126-.08s1.448.16 2.125.38 1.29.556 1.84 1c.55.444.98 1.026 1.27 1.745.21.507.33 1.02.34 1.538.01.52-.06 1.015-.22 1.49-.16.477-.39.932-.69 1.365-.3.44-.66.83-1.06 1.19-.86.79-1.82 1.45-2.85 2s-2.12.98-3.26 1.27c-.48.13-.99.24-1.5.33s-1.04.15-1.57.15-1.04-.06-1.55-.17c-.51-.11-.98-.31-1.43-.58-.31-.19-.51-.44-.57-.76-.13-.36-.26-.7-.41-1.01-.14-.31-.29-.64-.43-.98-.13-.34-.24-.67-.33-1.01-.08-.34-.12-.68-.12-1.04 0-.72.15-1.4.46-2.05.31-.64.73-1.21 1.25-1.69.89-.85 1.92-1.52 3.08-2.03 1.16-.51 2.35-.85 3.55-1.02zm3.585 2.728c-.57-.21-1.185-.31-1.84-.31-.697-.02-1.395.05-2.093.21s-1.364.38-1.998.65c-.593.24-1.2.56-1.824.97-.624.42-1.084.92-1.38 1.51-.17.32-.248.64-.237.97.01.33.063.66.158.99.1.33.23.66.39.99.16.33.3.65.43.97.34.09.55.13.64.13.04.02.1.03.16.03h.16c.43.05.81.04 1.14-.03.24 0 .53-.04.89-.12.55-.1 1.08-.25 1.59-.43s.98-.37 1.4-.58c.49-.23.96-.49 1.43-.76.47-.28.86-.56 1.18-.86.21-.19.42-.39.61-.6.11-.11.18-.19.22-.25.11-.14.19-.26.26-.33s.12-.16.16-.27c.09-.15.13-.26.13-.35.02-.04.04-.09.05-.16s.03-.11.05-.16v-.35c-.02-.08-.03-.15-.03-.19 0-.04-.01-.08-.03-.13-.06-.14-.12-.26-.17-.33l-.17-.24c.02.02 0-.01-.08-.1-.07-.08-.12-.13-.14-.16l-.25-.25c-.1-.06-.22-.13-.35-.22-.13-.08-.25-.14-.38-.19zm5.172-1.01c.02-.4.17-.7.444-.9.28-.2.58-.3.89-.3.32 0 .6.1.84.3.25.2.36.51.34.91 0 .13 0 .26-.01.4s-.01.27-.01.4c.68-.34 1.39-.63 2.14-.87.75-.24 1.5-.39 2.25-.46.75-.06 1.48 0 2.19.18s1.36.53 1.95 1.03c.3.28.43.58.4.89-.03.32-.15.59-.38.81-.22.22-.5.36-.84.41-.34.06-.66-.04-.98-.3-.23-.19-.49-.33-.77-.41-.28-.08-.59-.12-.92-.11-.33.01-.65.05-.98.11-.33.06-.64.14-.93.22-1.12.36-2.17.84-3.14 1.43.04 1.04.11 2.07.19 3.11.09.87.16 1.76.22 2.68s.25 1.8.54 2.62c.13.39.1.71-.08.97s-.42.44-.73.53c-.3.09-.62.07-.95-.06-.32-.12-.55-.38-.68-.76-.17-.48-.28-.98-.35-1.49l-.19-1.52c-.04-.48-.09-.97-.14-1.47-.05-.49-.1-.99-.14-1.47-.1-1.14-.17-2.28-.2-3.41-.03-1.13 0-2.27.08-3.41zm12.18 6.06c-.084-.25-.094-.52-.03-.79-.15-2.55-.31-5.1-.477-7.62-.17-2.52-.158-5.07.032-7.63.042-.36.175-.66.396-.9.222-.24.513-.36.872-.36.338 0 .645.13.92.37.274.24.39.55.35.91-.17 2.31-.19 4.58-.064 6.84.127 2.25.265 4.53.412 6.84 1.185-.74 2.374-1.46 3.568-2.16s2.363-1.44 3.505-2.22c.34-.23.67-.29.97-.17.31.12.54.32.7.59.16.28.22.58.18.92-.04.34-.23.62-.57.86-1.14.78-2.3 1.52-3.47 2.2-1.17.69-2.35 1.39-3.53 2.11 1.42.95 2.83 1.92 4.22 2.89s2.76 2 4.09 3.08c.28.23.4.53.38.9-.02.37-.15.67-.38.91-.27.25-.57.37-.9.35-.32-.02-.63-.14-.9-.35-1.22-.99-2.47-1.93-3.74-2.82s-2.55-1.77-3.86-2.66c.02.81.03 1.62.02 2.44s-.04 1.64-.08 2.44c-.02.43-.16.74-.43.94-.26.2-.55.3-.87.3s-.6-.1-.85-.3c-.25-.2-.37-.51-.35-.93.04-1.14.06-2.29.05-3.44-.01-1.15-.05-2.31-.11-3.47z"/></g><g fill="#A2DADB"><path d="M116.96 29.292c-1.592 0-2.844.564-3.756 1.693-.912 1.13-1.368 2.687-1.368 4.673 0 2.08.438 3.653 1.316 4.72.877 1.066 2.146 1.6 3.81 1.6.718 0 1.414-.072 2.086-.215.673-.143 1.372-.326 2.1-.55v2.376c-1.33.5-2.838.75-4.522.75-2.48 0-4.388-.75-5.717-2.26-1.33-1.51-2-3.66-2-6.46 0-1.77.32-3.31.97-4.63.64-1.33 1.58-2.34 2.8-3.04 1.22-.71 2.65-1.06 4.3-1.06 1.73 0 3.33.36 4.8 1.09l-1 2.31c-.58-.27-1.18-.51-1.82-.71-.64-.21-1.31-.31-2.02-.31zm17.882 14.818h-2.736v-7.884c0-.99-.2-1.728-.598-2.215s-1.03-.73-1.896-.73c-1.145 0-1.985.35-2.522 1.03s-.806 1.83-.806 3.44v6.37h-2.725V26.07h2.72v4.58c0 .734-.05 1.518-.14 2.353h.17c.37-.618.88-1.098 1.54-1.438.66-.34 1.43-.51 2.31-.51 3.1 0 4.66 1.565 4.66 4.696v8.36zm2.678-16.22c0-.487.134-.862.4-1.125s.647-.394 1.143-.394c.48 0 .852.14 1.12.4.266.27.398.64.398 1.13 0 .47-.13.83-.39 1.1-.27.27-.64.4-1.12.4-.49 0-.87-.13-1.14-.4-.26-.27-.4-.63-.4-1.09zm2.888 16.22h-2.725V31.288h2.725V44.11zm5.672 0h-2.726V26.07h2.725v18.04zm7.272.233c-1.6 0-2.85-.58-3.746-1.74-.896-1.16-1.345-2.786-1.345-4.88 0-2.104.46-3.74 1.37-4.912.91-1.17 2.17-1.75 3.78-1.75 1.69 0 2.97.62 3.85 1.87h.14c-.13-.92-.19-1.64-.19-2.18v-4.68h2.74v18.04h-2.14l-.47-1.68h-.12c-.87 1.28-2.15 1.92-3.84 1.92zm.73-2.203c1.12 0 1.937-.315 2.446-.945.51-.63.772-1.652.788-3.067v-.382c0-1.616-.263-2.764-.788-3.444s-1.35-1.02-2.47-1.02c-.96 0-1.697.388-2.215 1.165s-.776 1.884-.776 3.322c0 1.42.25 2.5.753 3.25.503.74 1.257 1.12 2.262 1.12zm15.295-11.085c.55 0 1 .04 1.356.116l-.267 2.54c-.387-.09-.788-.13-1.206-.13-1.09 0-1.973.36-2.65 1.07-.676.71-1.014 1.64-1.014 2.77v6.71h-2.725V31.29h2.14l.36 2.26h.14c.43-.764.98-1.37 1.67-1.82s1.42-.67 2.21-.67zm8.383 13.288c-1.994 0-3.554-.582-4.678-1.745-1.125-1.164-1.688-2.766-1.688-4.806 0-2.095.52-3.74 1.565-4.94 1.04-1.198 2.47-1.797 4.3-1.797 1.69 0 3.03.514 4.01 1.542s1.47 2.443 1.47 4.244v1.48h-8.54c.04 1.25.37 2.2 1.01 2.87.63.67 1.52 1.01 2.67 1.01.76 0 1.46-.07 2.11-.21s1.35-.38 2.1-.71v2.22c-.67.32-1.34.54-2.02.67-.68.13-1.46.2-2.33.2zm-.498-11.224c-.865 0-1.56.27-2.08.82s-.834 1.35-.935 2.4h5.82c-.015-1.06-.27-1.86-.765-2.41-.494-.55-1.174-.82-2.04-.82zm18.914 10.99h-2.736v-7.89c0-.99-.2-1.73-.598-2.22s-1.03-.73-1.896-.73c-1.152 0-1.994.34-2.528 1.02-.533.68-.8 1.82-.8 3.42v6.39h-2.725V31.28h2.134l.382 1.68h.14c.38-.61.93-1.08 1.64-1.414s1.5-.5 2.36-.5c3.07 0 4.61 1.567 4.61 4.7v8.36zm5.02-16.95l.175.25c-.41 1.61-1.09 3.46-2.04 5.55h-1.97c.54-2.24.92-4.17 1.16-5.81h2.68zm10.067 13.3c0 1.25-.456 2.21-1.368 2.88s-2.22 1-3.92 1c-1.708 0-3.08-.26-4.116-.78v-2.35c1.5.69 2.91 1.04 4.2 1.04 1.68 0 2.51-.51 2.51-1.52 0-.33-.1-.6-.28-.81-.19-.22-.49-.44-.92-.68s-1.02-.49-1.78-.79c-1.48-.57-2.48-1.14-3-1.71-.52-.58-.79-1.32-.79-2.23 0-1.1.44-1.95 1.32-2.56s2.09-.91 3.61-.91c1.5 0 2.93.3 4.27.91l-.88 2.05c-1.38-.58-2.55-.86-3.49-.86-1.44 0-2.16.41-2.16 1.23 0 .4.19.74.56 1.02.37.28 1.19.66 2.45 1.15 1.06.41 1.83.78 2.31 1.12.48.34.83.73 1.06 1.18.23.44.35.98.35 1.59zm14.717-11.17c-1.594 0-2.846.56-3.758 1.69-.912 1.13-1.368 2.68-1.368 4.67 0 2.08.438 3.65 1.316 4.72.877 1.06 2.146 1.6 3.81 1.6.718 0 1.414-.07 2.086-.22.673-.15 1.372-.33 2.1-.55v2.37c-1.33.5-2.838.75-4.522.75-2.48 0-4.388-.76-5.717-2.26-1.33-1.51-1.994-3.66-1.994-6.46 0-1.77.322-3.31.968-4.63.65-1.33 1.58-2.34 2.81-3.04 1.22-.71 2.66-1.06 4.3-1.06 1.73 0 3.33.36 4.8 1.09l-.99 2.31c-.57-.27-1.17-.51-1.81-.72-.64-.21-1.31-.31-2.01-.31zm17.973 8.38c0 2.09-.537 3.73-1.612 4.9-1.07 1.17-2.57 1.76-4.48 1.76-1.2 0-2.25-.27-3.17-.81s-1.62-1.32-2.12-2.33c-.49-1.02-.74-2.19-.74-3.53 0-2.08.53-3.71 1.6-4.87 1.07-1.17 2.57-1.75 4.51-1.75 1.86 0 3.33.59 4.41 1.79 1.08 1.19 1.63 2.8 1.63 4.82zm-9.334 0c0 2.96 1.09 4.44 3.28 4.44 2.16 0 3.24-1.48 3.24-4.44 0-2.93-1.09-4.4-3.27-4.4-1.15 0-1.98.38-2.49 1.13-.52.76-.77 1.84-.77 3.26zm22.32 6.43h-2.74v-7.9c0-.98-.19-1.72-.56-2.2-.37-.49-.95-.73-1.74-.73-1.05 0-1.82.34-2.31 1.03s-.74 1.82-.74 3.41v6.39h-2.73V31.29h2.13l.38 1.682h.14c.35-.613.87-1.084 1.54-1.417s1.42-.5 2.23-.5c1.97 0 3.27.673 3.92 2.02h.18c.38-.635.91-1.13 1.6-1.485.69-.356 1.47-.534 2.36-.534 1.53 0 2.64.386 3.34 1.16.7.772 1.05 1.95 1.05 3.536v8.36h-2.72V36.2c0-.98-.19-1.713-.56-2.196-.38-.483-.96-.725-1.75-.725-1.06 0-1.84.33-2.33.99-.49.66-.74 1.67-.74 3.04v6.79zm21.75 0h-2.74v-7.9c0-.98-.19-1.72-.56-2.2-.37-.49-.95-.73-1.74-.73-1.06 0-1.83.34-2.32 1.03s-.74 1.82-.74 3.41v6.39h-2.73V31.29H270l.384 1.682h.14c.354-.613.87-1.084 1.55-1.417s1.42-.5 2.23-.5c1.97 0 3.277.673 3.92 2.02h.185c.37-.635.91-1.13 1.6-1.485.68-.356 1.47-.534 2.36-.534 1.53 0 2.64.386 3.34 1.16.7.772 1.05 1.95 1.05 3.536v8.36h-2.73V36.2c0-.98-.19-1.713-.57-2.196-.38-.483-.96-.725-1.75-.725-1.06 0-1.84.33-2.33.99-.49.66-.74 1.67-.74 3.04v6.79zm19.99 0l-.39-1.68h-.14c-.38.59-.92 1.06-1.62 1.4-.7.34-1.5.51-2.4.51-1.56 0-2.72-.39-3.48-1.16-.77-.78-1.15-1.95-1.15-3.52v-8.38h2.74v7.91c0 .98.2 1.71.6 2.21.4.49 1.03.73 1.89.73 1.14 0 1.98-.35 2.52-1.03.54-.69.81-1.83.81-3.44v-6.39h2.73V44.1h-2.14zm16.36 0h-2.74v-7.88c0-.99-.2-1.73-.6-2.22s-1.03-.73-1.9-.73c-1.15 0-2 .34-2.53 1.02-.54.68-.8 1.82-.8 3.42v6.39h-2.73V31.28h2.13l.38 1.682h.14c.38-.614.93-1.085 1.64-1.418s1.5-.5 2.36-.5c3.07 0 4.61 1.565 4.61 4.696v8.36zm2.68-16.22c0-.49.13-.87.4-1.13s.64-.4 1.14-.4c.48 0 .85.13 1.12.39.26.26.39.63.39 1.12 0 .46-.14.83-.4 1.1s-.64.4-1.12.4c-.5 0-.88-.14-1.15-.4-.27-.27-.4-.64-.4-1.1zm2.88 16.22h-2.73V31.28h2.72v12.83zm7.72-1.97c.66 0 1.33-.11 1.99-.32v2.05c-.3.13-.69.24-1.17.33-.48.09-.97.13-1.48.13-2.58 0-3.88-1.36-3.88-4.08v-6.91h-1.75v-1.2l1.88-1 .92-2.72h1.68v2.85h3.65v2.06h-3.66v6.87c0 .65.16 1.14.49 1.45.33.31.76.47 1.29.47z"/><path d="M329.997 31.287h2.97l2.607 7.27c.395 1.037.657 2.01.79 2.923h.092c.07-.425.196-.94.382-1.548s1.168-3.488 2.945-8.645h2.945l-5.484 14.53c-.997 2.666-2.66 4-4.986 4-.603 0-1.19-.067-1.762-.198v-2.16c.41.09.877.14 1.402.14 1.314 0 2.238-.77 2.77-2.29l.477-1.21-5.148-12.83z"/></g></svg>