<?xml version="1.0" encoding="utf-8"?>
<!-- Generator: Adobe Illustrator 16.0.0, SVG Export Plug-In . SVG Version: 6.00 Build 0)  -->
<!DOCTYPE svg PUBLIC "-//W3C//DTD SVG 1.1//EN" "http://www.w3.org/Graphics/SVG/1.1/DTD/svg11.dtd">
<svg version="1.1" id="Layer_1" xmlns="http://www.w3.org/2000/svg" xmlns:xlink="http://www.w3.org/1999/xlink" x="0px" y="0px"
	 width="371.992px" height="89px" viewBox="0 0 371.992 89" enable-background="new 0 0 371.992 89" xml:space="preserve">
<path fill="#58595B" d="M33.018,74.877H50.41v0.471H33.018V74.877z"/>
<path fill="#ABC81E" d="M90.734,51.25c0,4.372-3.264,7.917-7.29,7.917c-4.022,0-7.286-3.544-7.286-7.916
	c0-4.37,3.264-7.91,7.287-7.91c4.026,0,7.29,3.55,7.29,7.92"/>
<path fill="#80A01B" d="M90.74,51.25c0-4.37-3.25-7.915-7.286-7.915v15.832C87.489,59.167,90.741,55.623,90.74,51.25"/>
<path fill="#625F2C" d="M82.522,56.077h2.018V65.7h-2.018V56.077z"/>
<path fill="#BEE735" d="M98.678,59.191c0,0-19.104,4.608-28.728,9.885c-9.623,5.277-10.864,7.334-10.864,7.334l35.854-1.553
	C94.94,74.857,98.988,66.798,98.678,59.191"/>
<path fill="#A2DADB" d="M20.2,81.87C12.91,73.82,8.47,63.145,8.47,51.43c0-25.047,20.305-45.35,45.352-45.35
	c25.048,0,45.35,20.303,45.35,45.35c0,9.412-2.865,18.153-7.774,25.4c-1.193,1.76,1.81,1.643,2.8,0.08
	c4.664-7.373,7.364-16.11,7.364-25.48c0-26.365-21.374-47.738-47.74-47.738c-26.363,0-47.737,21.373-47.737,47.738
	c0,11.061,3.76,21.237,10.07,29.33"/>
<path fill="#999999" d="M13.232,74.688c-5.285,0-7.23,4.188-8.668,8.855h92.082v-8.855H13.232z"/>
<path fill="#999999" d="M95.043,74.688c5.402,0,7.39,4.188,8.858,8.855H36.47l-0.533-8.855h59.108H95.043z"/>
<path fill="#E6E6E6" d="M17.49,77.807h6.207v1.242H17.49V77.807z M32.08,77.807h6.207v1.242H32.08V77.807z M46.67,77.807h6.207
	v1.242H46.67V77.807z M61.258,77.807h6.21v1.242h-6.21V77.807z M75.848,77.807h6.21v1.242h-6.21V77.807z M90.438,77.807h6.21v1.242
	h-6.21V77.807z"/>
<path fill="#EDC91B" d="M23.436,49.07c0,2.012-1.63,3.64-3.64,3.64c-2.01,0-3.642-1.628-3.642-3.64s1.63-3.641,3.64-3.641
	C21.807,45.43,23.436,47.061,23.436,49.07"/>
<path fill="#EF9E19" d="M16.176,49.07c0,2.012,1.624,3.64,3.64,3.64v-7.28C17.8,45.43,16.176,47.061,16.176,49.07"/>
<path fill="#70C5B0" d="M78.15,26.193c0.156-0.495,0.24-1.02,0.24-1.568c0-2.86-2.317-5.178-5.177-5.178
	c-2.2,0-4.015,1.168-4.764,3.104c-0.83-0.85-2.05-1.19-3.34-1.19c-2.34,0-4.27,1.78-4.51,4.06c-0.13-0.01-0.26-0.02-0.39-0.02
	c-1.89,0-3.42,1.53-3.42,3.42c0,1.89,1.58,3.37,3.47,3.37h16.71c1.71,0,3.1-1.39,3.1-3.1c0-1.3-0.81-2.41-1.94-2.87"/>
<path fill="#A2DADB" d="M78.15,26.193c0.156-0.495,0.24-1.02,0.24-1.568c0-2.86-2.317-5.178-5.177-5.178
	c-2.2,0-4.015,1.168-4.764,3.104l-0.06-0.05v9.68h8.59c1.71,0,3.1-1.39,3.1-3.1c0-1.3-0.81-2.41-1.94-2.87"/>
<path fill="#666666" d="M18.643,73.805c0,0.689-0.56,1.25-1.25,1.25s-1.248-0.561-1.248-1.25c0-0.69,0.56-1.25,1.248-1.25
	C18.083,72.557,18.643,73.114,18.643,73.805"/>
<path fill="#E96558" d="M20.404,68.675c-2.174,0-2.885,0.56-3.934,1.856c-0.132,0.17-1.073,0.77-1.073,0.77
	c-0.32,0.26-0.548,0.641-0.548,1.26v0.041c0,0.619,0.43,1.02,1.05,1.02h0.02v0.02c0-0.81,0.66-1.439,1.47-1.439
	s1.47,0.619,1.47,1.439h2.7v0.021c0-0.81,0.65-1.44,1.47-1.44c0.81,0,1.47,0.62,1.47,1.44c0,0.01-0.01,0-0.01,0h0.32
	c0.62,0,1.2-0.4,1.2-1.021v-0.039c0-0.621-0.51-3.881-5.62-3.881"/>
<path fill="#666666" d="M24.28,73.805c0,0.689-0.558,1.25-1.247,1.25c-0.69,0-1.25-0.561-1.25-1.25c0-0.69,0.56-1.25,1.25-1.25
	c0.69,0.002,1.248,0.56,1.248,1.25 M29.501,74.044c0,0.586-0.47,1.062-1.06,1.062c-0.58,0-1.06-0.475-1.06-1.062
	s0.48-1.062,1.06-1.062c0.59,0,1.07,0.476,1.07,1.062"/>
<path fill="#EF9E19" d="M24.94,48.627h3.88v0.93h-3.88V48.627z M10.814,48.627h4.035v0.93h-4.04L10.814,48.627z M19.352,54.214
	h0.932v4.036h-0.932V54.214z M19.352,40.09h0.932v4.036h-0.932V40.09z M23.807,52.307l2.832,2.832l-0.69,0.68l-2.84-2.829
	L23.807,52.307z M13.85,42.352l2.83,2.832l-0.686,0.687l-2.832-2.832L13.85,42.352z M16.595,52.994l-2.83,2.832l-0.688-0.688
	l2.833-2.84L16.595,52.994z M26.55,43.036l-2.83,2.83l-0.688-0.685l2.832-2.831L26.55,43.036z"/>
<path fill="#ABC81E" d="M2737.33,1731.313c0,28.166-21.02,51-46.95,51c-25.93,0-46.952-22.834-46.952-51s21.021-51,46.95-51
	C2716.309,1680.313,2737.33,1703.146,2737.33,1731.313"/>
<path fill="#80A01B" d="M2737.38,1731.313c0-28.166-20.952-51-46.952-51v102c26,0,46.95-22.834,46.95-51"/>
<path fill="#625F2C" d="M2684.428,1762.405h13v62h-13V1762.405z"/>
<path fill="#BEE735" d="M2825.515,1775.478c0,0-123.087,29.68-185.087,63.68s-70,47.25-70,47.25l231-10
	C2801.428,1876.405,2827.515,1824.478,2825.515,1775.478"/>
<path fill="#A2DADB" d="M2368.918,1983.405h30.203c-92.11-49.166-154.811-146.221-154.811-257.93
	c0-161.372,130.82-292.19,292.19-292.19c161.38,0,292.189,130.818,292.189,292.19c0,111.709-62.689,208.764-154.81,257.93h30.21
	c84.27-54.86,139.989-149.88,139.989-257.93c0-169.866-137.699-307.57-307.569-307.57s-307.57,137.704-307.57,307.57
	c0,108.05,55.729,203.069,139.99,257.93"/>
<path fill="#B1B899" d="M2538.428,1615.405h6v15h-6V1615.405z"/>
<path fill="#937B5F" d="M2531.428,1625.405h16v25h-16V1625.405z"/>
<path fill="#D5F645" d="M2211.428,1933.405h614v-57h-549.199C2212.678,1876.405,2211.428,1933.405,2211.428,1933.405"/>
<path fill="#9BBE26" d="M2211.428,1933.405h614v57h-549.199C2211.428,1990.405,2211.428,1933.405,2211.428,1933.405"/>
<path fill="#AB8652" d="M2563.428,1789.405h81v90h-81V1789.405z"/>
<path fill="#6D5D4D" d="M2573.428,1798.405h14v20h-14V1798.405z M2573.428,1824.405h14v20h-14V1824.405z M2597.428,1798.405h14v20
	h-14V1798.405z M2597.428,1824.405h14v20h-14V1824.405z M2620.428,1798.405h14v20h-14V1798.405z M2620.428,1824.405h14v20h-14
	V1824.405z M2573.428,1852.405h14v20h-14V1852.405z M2597.428,1852.405h14v20h-14V1852.405z M2620.428,1852.405h14v20h-14V1852.405z
	"/>
<path fill="#666666" d="M2560.428,1771.405h91v18h-91V1771.405z"/>
<path fill="#70C5B0" d="M2427.428,1653.405h138v223h-138V1653.405z"/>
<path fill="#937B5F" d="M2444.428,1738.405h24v34h-24V1738.405z M2444.428,1783.405h24v35h-24V1783.405z M2484.428,1738.405h24v34
	h-24V1738.405z M2484.428,1783.405h24v35h-24V1783.405z M2524.428,1738.405h24v34h-24V1738.405z M2524.428,1783.405h24v35h-24
	V1783.405z M2444.428,1693.405h24v34h-24V1693.405z M2484.428,1693.405h24v34h-24V1693.405z M2524.428,1693.405h24v34h-24V1693.405z
	 M2444.428,1830.405h24v35h-24V1830.405z M2484.428,1830.405h24v35h-24V1830.405z M2524.428,1830.405h24v35h-24V1830.405z"/>
<path fill="#666666" d="M2421.428,1655.405h152v6h-152V1655.405z"/>
<path fill="#B1B899" d="M2414.428,1645.405h164v11h-164V1645.405z"/>
<path fill="#999999" d="M2276.227,1876.405c-34.8,0-47.609,14.188-57.069,30h606.271v-30h-549.21H2276.227z"/>
<path fill="#E6E6E6" d="M2248.428,1892.405l-18.313-0.5c0,0,1.991-2.094,3.83-3.5c3.04-2.326,5.545-3.723,5.545-3.723l8.93-0.277v8
	H2248.428z M2302.428,1884.405h40v8h-40V1884.405z M2396.428,1884.405h40v8h-40V1884.405z M2490.428,1884.405h40v8h-40V1884.405z
	 M2584.428,1884.405h40v8h-40V1884.405z M2678.428,1884.405h40v8h-40V1884.405z M2772.428,1884.405h40v8h-40V1884.405z"/>
<path fill="#EDC91B" d="M2352.743,1710.265c0,12.954-10.502,23.456-23.457,23.456c-12.954,0-23.456-10.5-23.456-23.449
	c0-12.95,10.502-23.45,23.456-23.45c12.955,0,23.457,10.5,23.457,23.46"/>
<path fill="#EF9E19" d="M2305.972,1710.265c0,12.954,10.456,23.456,23.456,23.456v-46.909c-13,0-23.456,10.5-23.456,23.459"/>
<path fill="#808080" d="M2751.428,1715.556l13,1.742v-2.893h-13 M2751.428,1734.722l13,1.742v-4.06h-13 M2751.428,1753.89l13,1.742
	v-3.227h-13"/>
<path fill="#FBB555" d="M2754.67,1743.516c0,3.905,3.167,7.072,7.075,7.072c3.905,0,7.069-3.167,7.069-7.072
	c0-3.904-3.164-7.073-7.069-7.073C2757.837,1736.442,2754.671,1739.61,2754.67,1743.516"/>
<path fill="#D65A65" d="M2754.67,1724.452c0,3.908,3.167,7.075,7.075,7.075c3.905,0,7.069-3.167,7.069-7.075
	c0-3.904-3.164-7.072-7.069-7.072C2757.837,1717.38,2754.671,1720.548,2754.67,1724.452"/>
<path fill="#7BB264" d="M2754.67,1764.112c0,3.908,3.167,7.074,7.075,7.074c3.905,0,7.069-3.166,7.069-7.074
	c0-3.906-3.164-7.072-7.069-7.072C2757.837,1757.04,2754.671,1760.206,2754.67,1764.112"/>
<path fill="#808080" d="M2773.428,1728.405h5v148h-5V1728.405z"/>
<path fill="#666666" d="M2760.428,1712.405h18v60h-18V1712.405z"/>
<path fill="#70C5B0" d="M2693.25,1562.87c1.012-3.19,1.561-6.582,1.561-10.105c0-18.425-14.934-33.359-33.356-33.359
	c-14.178,0-25.86,7.529-30.69,20c-5.313-5.535-13.199-7.666-21.478-7.666c-15.092,0-27.51,11.449-29.032,26.14
	c-0.816-0.1-1.649-0.149-2.49-0.149c-12.149,0-22,9.85-22,22c0,12.149,10.184,21.659,22.334,21.659h107.666c11.047,0,20-8.96,20-20
	c0-8.399-5.181-15.569-12.515-18.54"/>
<path fill="#A2DADB" d="M2693.25,1562.87c1.012-3.19,1.561-6.582,1.561-10.105c0-18.425-14.934-33.359-33.356-33.359
	c-14.178,0-25.86,7.529-30.69,20c-0.109-0.11-0.225-0.214-0.334-0.324v62.33h55.33c11.039,0,20-8.95,20-20
	c0-8.391-5.181-15.57-12.521-18.53"/>
<path fill="#666666" d="M2309.86,1869.618c0,4.445-3.604,8.05-8.048,8.05c-4.445,0-8.049-3.604-8.049-8.05
	c0-4.443,3.604-8.048,8.049-8.048c4.444,0,8.05,3.604,8.05,8.048"/>
<path fill="#E96558" d="M2321.215,1836.57c-14.017,0-18.586,3.604-25.344,11.956c-0.85,1.055-6.91,4.926-6.91,4.926
	c-2.06,1.684-3.52,4.13-3.52,8.115v0.257c0,3.984,2.81,6.58,6.79,6.58h0.14c0,0-0.01,0.189-0.01,0.124c0-5.23,4.24-9.311,9.47-9.311
	s9.47,4.003,9.47,9.23c0,0.063-0.01-0.044-0.01-0.044h17.41c0,0-0.01,0.188-0.01,0.123c0-5.23,4.239-9.311,9.47-9.311
	c5.229,0,9.47,4.003,9.47,9.23c0,0.063-0.01-0.044-0.01-0.044h2.07c3.989,0,7.76-2.597,7.76-6.58v-0.258
	c0-3.982-3.301-24.996-36.21-24.996"/>
<path fill="#666666" d="M2346.189,1869.618c0,4.445-3.603,8.05-8.048,8.05c-4.444,0-8.05-3.604-8.05-8.05
	c0-4.443,3.605-8.048,8.05-8.048c4.445,0,8.05,3.604,8.05,8.048 M2379.768,1871.165c0,3.777-3.063,6.84-6.842,6.84
	c-3.777,0-6.842-3.062-6.842-6.84c0-3.78,3.063-6.84,6.842-6.84S2379.768,1867.385,2379.768,1871.165"/>
<path fill="#EDC91B" d="M2416.886,1857.12c0,0-4.376-2.771-4.985-3.521c-4.83-5.974-7.89-8.55-17.92-8.55
	c-1.359,0-2.629,0.055-3.859,0.15c-1.221-0.096-2.5-0.15-3.86-0.15c-10.021,0-13.09,2.576-17.93,8.55
	c-0.601,0.75-5.16,3.521-5.16,3.521c-1.47,1.204-2.74,2.954-2.74,5.803v0.186c0,2.399,2,4.412,4,4.989v0.309h0.75
	c0.94-4,4.05-5.922,7.761-5.922c3.709,0,6.819,1.922,7.76,5.922h20.82c0.939-4,4.05-5.992,7.76-5.992c3.479,0,6.39,2.173,7.52,5.258
	c1.601-0.876,2.65-2.609,2.65-4.563v-0.19c0-2.85-1.07-4.6-2.54-5.81"/>
<path fill="#666666" d="M2416.097,1871.165c0,3.777-3.063,6.84-6.84,6.84c-3.78,0-6.843-3.062-6.843-6.84
	c0-3.78,3.063-6.84,6.842-6.84C2413.033,1864.325,2416.096,1867.385,2416.097,1871.165"/>
<path fill="#EF9E19" d="M2362.428,1707.405h25v6h-25V1707.405z M2271.428,1707.405h26v6h-26V1707.405z M2326.428,1743.405h6v26h-6
	V1743.405z M2326.428,1652.405h6v26h-6V1652.405z M2355.028,1731.095l18.245,18.246l-4.424,4.43l-18.25-18.239L2355.028,1731.095z
	 M2290.898,1666.963l18.244,18.245l-4.424,4.424l-18.25-18.245L2290.898,1666.963z M2308.696,1735.533l-18.244,18.244l-4.424-4.425
	l18.245-18.244L2308.696,1735.533z M2372.828,1671.396l-18.244,18.244l-4.422-4.422l18.244-18.244L2372.828,1671.396z"/>
<path d="M1225.122,2183.5c4.192,0.14,3.937,4.729,7,6c-8.897,25.76,0.004,51.519,12,67h37c8.39-12.057,16.446-28.397,16-47
	c-0.224-9.32-7.762-21.478,3-26c10.968,6.62,10.874,25.988,9,41c-2.351,18.817-14.9,36.405-23,47c-1.59,46.942,3.326,92.649,3,135
	c-3.646,3.445-15.408,4.534-20,1c-3.554-17.896-2.772-38.557-4-60c-0.22-3.833,2.543-12.135-4-12c-5.07,20.93-2.403,49.596-7,71
	c-4.897,5.834-18.561,2.646-22-2c4.247-42.753,6.913-87.087,6-135c-16.38-17.006-30.811-53.272-18-84
	C1223.31,2186.354,1223.918,2184.63,1225.122,2183.5z M1096.122,2189.5c5.723,5.94-2.173,15-4,20c-3.58,25.58,8.473,35.527,19,47h39
	c12.923,14.085,29.973,43.514,28,71c-0.65,9.08-2.688,23.697-14,25c-7.938-6.688,0.47-17.146,1-26c0.825-13.783-5.08-26.22-9-37
	c-3.818,39.82,2.146,78.521,1,119c-3.894,2.675-15.783,5.462-19,0c-7.88-18.787-0.597-52.737-7-73c-6.428,2.16-3.646,11.454-4,17
	c-1.05,16.413-2.877,39.231-5,56c-5.753,4.856-14.32,2.954-20,0c-0.38-43.735,6.165-89.149,4-138c-9.012-10.632-26.115-24.94-28-45
	c-1.476-15.707,3.453-24.937,10-35C1088.312,2190.206,1093.334,2183.453,1096.122,2189.5z"/>
<path d="M1270.122,2252.5c-22.272,4.717-30.44-14.78-21-27C1265.314,2204.54,1295.271,2242.125,1270.122,2252.5z M1424.122,2252.5
	h-16c-3.237-4.424-8.173-7.292-9-12c-3.64-20.71,25.784-26.58,33-11v14C1429.055,2246.101,1426.156,2248.868,1424.122,2252.5z
	 M1438.122,2325.5c-4.3,7.286-5.806,18.722,2,23c-0.62,19.712,1.27,41.938-1,60c-4.075,2.772-15.99,3.146-20,0
	c-3.622-21.71,2.28-52.947-3-73c-5.288,20.045,0.614,51.28-3,73c-3.767,2.899-11.472,1.862-18,2c-6.077-6.958-4-17.97-4-28v-96
	c-16.58,19.656-27.986,5.44-38-13c-5.376-9.897-14.163-22.01-6-28c17.286,4.048,13.712,28.956,28,36c8.394-4.374,13.17-17.167,21-25
	h40c8.649,10.685,12.825,25.842,17,41c-0.47,18.53,2.663,40.663-10,47C1434.064,2341.865,1437.367,2334.532,1438.122,2325.5z
	 M1440.122,2323.5c-0.567-6.116,1.198-19.842-1-21C1439.689,2308.616,1437.924,2322.343,1440.122,2323.5z"/>
<path fill="#FFFFFF" d="M1568.122,2300.5c4.438,5.896,0.832,19.834,2,29C1565.545,2323.744,1569.389,2309.565,1568.122,2300.5z
	 M1439.122,2302.5c2.198,1.158,0.433,14.884,1,21C1437.924,2322.343,1439.689,2308.616,1439.122,2302.5z"/>
<path d="M1309.122,2473.5c5.677,2.396,10.793,13.195,9,21c-3.146,13.7-24.876,15.043-31,4
	C1280.615,2486.769,1288.828,2468.44,1309.122,2473.5z M1414.122,2506.5c-16.798-6.74-10.688-36.13,10-33
	C1442.438,2476.272,1443.307,2512.404,1414.122,2506.5z M1504.122,2476.5c14.593-4.955,23.99,5.313,24,15
	c0.02,21.514-39.415,24.443-33-7C1498.132,2481.845,1500.077,2478.122,1504.122,2476.5z"/>
<path d="M1568.122,2576.5c8.915-10.335,13.827-24.64,6-37c-3.878-6.123-14.767-14.927-21-18c-6.392-3.149-15.482-2.742-21-6
	c-2.29-1.351-1.733-4.616-4-5c2.778-14.21,27.274,1.18,36,6c9.784,5.406,22.938,17.737,25,30c2.276,13.546-4.567,30.528-13,38
	c-1.868-0.798-3.663-1.67-6-2c0.399,10.601,3.36,18.64,4,29c11.644,2.193,22.054-12.42,33-11c6.294,0.815,12.11,9.073,11,15
	c-1.42,7.565-28.32,17.418-40,19c-3.95,0.536-10.127-0.394-14,0c-15.79-6.875-12.022-33.31-17-51c-12.915,3.604-16.654,23.517-23,37
	c-0.082,0.175-1.79-1.404-2-1c-0.681,1.315,0.517,3.601,0,5c-2.08,5.64-6.3,11.58-9,17c-3.047,6.115-7.198,11.79-8,18
	c-1.862,0.138-3.343,0.658-4,2c-8.742,0.076-13.097-4.236-17-9c9.733-25.601,21.837-48.83,34-72c-4.206-21.794-14.72-37.28-21-57
	c4.366-10.633,18.954-11.046,29-16c-0.73,6.063,4.888,5.78,6,10c27.054,1.947,24.067,33.932,36,51V2576.5z M1321.122,2509.5
	c9.075,9.115,21.675,28.623,24,47c2.03,16.06,1.024,40.653-13,38c-3.82-14.101,4.313-39.257-5-52c-1.806,16.649-1,37.415-1,59
	c0,16.937,4.542,53.458-2,60c-4.38,4.38-16.867,2.625-19-2c-6.418-13.918,2.272-57.33-4-71c-5.308,20.027,0.64,51.308-3,73
	c-4.726,2.854-15.23,2.771-20,0v-127c-11.887,5.063-27.095,16.11-44,18c-7.003,0.784-20.327,2.228-23-6
	c0.842-8.536,10.054-5.269,16-6c23.8-2.93,41.59-14.979,53-29c0.733-0.935,1.817-1.515,3-2H1321.122z"/>
<path d="M1501.122,2544.5c16.744,15.05,4.576,42.988-20,42c-0.297-2.036-2.003-2.663-3-4c3.972-13.135,21.646-12.346,23-31V2544.5z"
	/>
<path fill="#FFFFFF" d="M1445.122,2546.5c3.16,0.19,2.319,7.387,1,9C1443.852,2554.437,1445.742,2549.215,1445.122,2546.5z
	 M1549.122,2275.5c-1.138,2.862-3.138,4.862-6,6C1544.26,2278.638,1546.26,2276.638,1549.122,2275.5z"/>
<path d="M1138.122,2252.5c-15.896,2.646-25.122-5.101-25-16c0.155-13.82,21.384-23.447,31-11
	C1150.61,2233.899,1146.912,2246.038,1138.122,2252.5z M1547.122,2245.5c-4.563-1.229,0.093,6.76-3,7
	c-12.86,1.332-18.101-8.147-18-16c0.246-19.103,30.944-22.229,34-2c-2.594,5.406-1.146,14.854-3,21c1.733,2.417,5.04,1.097,9,3
	c6.563,11.088,15.528,29.368,17,48c1.093,13.837,0.876,29.95-8,38c-4.866,1.532-3.765-2.902-7-3c-1.188,21.812,2.468,48.468-2,67
	c-4.624,3.162-16.247,2.625-21,0c-1.32-23.678,2.649-52.649-2-73c-4.65,19.685-0.681,47.987-2,71c-5.028,6.127-18.448,5.767-23,0
	c1.319-37.013-2.648-79.313,2-113c-13.496-6.583-3.66-28.88,2-37c7.02,0.981,18.18-2.18,22,2
	C1545.077,2254.122,1547.827,2251.54,1547.122,2245.5z M1543.122,2281.5c2.862-1.138,4.862-3.138,6-6
	C1546.26,2276.638,1544.26,2278.638,1543.122,2281.5z M1570.122,2329.5c-1.168-9.166,2.438-23.104-2-29
	C1569.389,2309.565,1565.545,2323.744,1570.122,2329.5z M1445.122,2583.5c-1.23,26.104,2.522,57.19-2,80
	c-5.718,2.522-13.282,2.522-19,0c-5.085-20.914,0.485-52.483-3-75c-5.328,8.714-3,22.822-3,36c0,13.399,0.798,27.127-1,38
	c-3.905,3.698-15.45,4.652-18-1c-4.61-20.81-0.71-50.353-2-75c-5.01-6.87-13.103-13.358-15-24c-3.21-17.997,3.85-42.981,17-50
	c6.77-3.61,30.804-5.908,42-1c6.054,2.654,16.213,19.117,18,30C1461.959,2558.78,1455.612,2576.16,1445.122,2583.5z
	 M1446.122,2555.5c1.319-1.613,2.16-8.81-1-9C1445.742,2549.215,1443.852,2554.437,1446.122,2555.5z"/>
<path fill="#FFFFFF" d="M40.053,68.277h0.24v3.846h-0.24V68.277z M40.053,62.016h0.24v3.846h-0.24V62.016z"/>
<path fill="#70C5B0" d="M35.195,40.03h21.418v34.612H35.195V40.03z"/>
<path fill="#937B5F" d="M37.833,53.223h3.725V58.5h-3.725V53.223z M37.833,60.207h3.725v5.432h-3.725V60.207z M44.04,53.223h3.727
	V58.5H44.04V53.223z M44.04,60.207h3.727v5.432H44.04V60.207z M50.25,53.223h3.725V58.5H50.25V53.223z M50.25,60.207h3.725v5.432
	H50.25V60.207z M37.833,46.236h3.725v5.279h-3.725V46.236z M44.04,46.236h3.727v5.279H44.04V46.236z M50.25,46.236h3.725v5.279
	H50.25V46.236z"/>
<path fill="#666666" d="M34.263,40.34h23.592v0.93H34.263V40.34z"/>
<path fill="#B1B899" d="M33.177,38.788H58.63v1.708H33.178L33.177,38.788z"/>
<path fill="#E96558" d="M68.705,53.514h1.643v2.493h-1.643V53.514z M68.94,52.943h0.226v0.563h-0.227L68.94,52.943z"/>
<path fill="#E96558" d="M68.902,52.898h0.3v0.067h-0.3V52.898z M69.412,52.943h0.228v0.563h-0.228V52.943z"/>
<path fill="#E96558" d="M69.376,52.898h0.3v0.067h-0.3V52.898z M69.862,52.943h0.227v0.563h-0.23L69.862,52.943z"/>
<path fill="#E96558" d="M69.826,52.898h0.3v0.067h-0.3V52.898z M68.514,53.456h2.025v0.117h-2.03L68.514,53.456z M55.732,58.695
	h16.33v15.945H55.73L55.732,58.695z"/>
<path fill="#6D6E70" d="M72.578,58.859H55.215l0.39-3.715H72.19"/>
<path fill="#AA221B" d="M62.027,66.902h-4.3l0.312,0.91h3.67 M70.799,66.902h-5.39l0.33,0.902h4.72 M62.019,60.641h-4.3l0.31,0.907
	h3.67"/>
<path fill="#97CCE9" d="M66.294,61.547h3.675v3.71h-3.68L66.294,61.547z"/>
<path fill="#FFFFFF" d="M66.294,61.547h0.24v3.846h-0.24V61.547z M69.728,61.547h0.24v3.846h-0.24V61.547z"/>
<path fill="#FFFFFF" d="M66.294,61.547h3.48v0.362h-3.48V61.547z M66.294,64.95h3.675v0.53h-3.68L66.294,64.95z"/>
<path fill="#97CCE9" d="M58.068,61.547h3.676v3.71h-3.676V61.547z"/>
<path fill="#FFFFFF" d="M58.068,61.547h0.24v3.846h-0.24V61.547z M61.5,61.547h0.244v3.846H61.5V61.547z"/>
<path fill="#FFFFFF" d="M58.067,61.547h3.48v0.362h-3.48V61.547z M58.067,64.95h3.677v0.53h-3.676L58.067,64.95z"/>
<path fill="#97CCE9" d="M58.068,67.887h3.676v3.711h-3.676V67.887z"/>
<path fill="#FFFFFF" d="M58.068,67.887h0.24v3.846h-0.24V67.887z M61.5,67.887h0.244v3.846H61.5V67.887z"/>
<path fill="#FFFFFF" d="M58.067,67.887h3.48v0.362h-3.48V67.887z M58.067,71.29h3.677v0.53h-3.676L58.067,71.29z"/>
<path fill="#AA221B" d="M70.252,60.641H65.95l0.315,0.907h3.674"/>
<path fill="#E54D4C" d="M66.307,68.156h3.59v6.354h-3.59V68.156z"/>
<path fill="#666666" d="M47.422,68.156h3.59v6.354h-3.59V68.156z"/>
<path fill="#FFFFFF" d="M65.742,68.156h0.564v6.354h-0.564V68.156z M69.896,68.156h0.565v6.354h-0.56L69.896,68.156z"/>
<path fill="#FFFFFF" d="M65.742,67.805h4.72v0.789h-4.72V67.805z"/>
<path fill="#F1F1F2" d="M69.983,71.93h0.392v1.824h-0.392V71.93z M65.83,71.93h0.39v1.824h-0.39V71.93z M69.983,68.997h0.392v1.823
	h-0.392V68.997z M65.83,68.997h0.39v1.825h-0.39V68.997z M65.742,68.084h4.72v0.246h-4.72V68.084z"/>
<path fill="#6D6E70" d="M65.288,74.26h5.688v0.721h-5.688V74.26z"/>
<path fill="#259373" d="M46.353,74.26h5.688v0.721h-5.68L46.353,74.26z"/>
<path fill="#666666" d="M37.604,45.87h4.19v0.37h-4.19V45.87z M43.81,45.87H48v0.37h-4.19V45.87z M49.96,45.87h4.19v0.37h-4.19
	V45.87z M37.604,52.83h4.19v0.365h-4.19V52.83z M43.81,52.83H48v0.365h-4.19V52.83z M49.96,52.83h4.19v0.365h-4.19V52.83z
	 M37.604,59.84h4.19v0.367h-4.19V59.84z M43.81,59.84H48v0.367h-4.19V59.84z M49.96,59.84h4.19v0.367h-4.19V59.84z"/>
<path fill="#259373" d="M51.01,67.887h0.306v6.733h-0.305L51.01,67.887z M47.117,67.887h0.306v6.733h-0.306V67.887z"/>
<path fill="#259373" d="M46.822,67.893h4.874v0.307h-4.874V67.893z"/>
<path fill="#FFFFFF" d="M70.52,71.066c0.124,0.301-0.126,0.673-0.155,0.99c-0.236-0.152-0.454-0.326-0.496-0.677
	C70.029,71.227,70.319,71.193,70.52,71.066L70.52,71.066z"/>
<path fill="#EDC91B" d="M35.254,71.864c0,0-0.68-0.431-0.773-0.546c-0.75-0.928-1.22-1.327-2.78-1.327c-0.21,0-0.41,0.01-0.6,0.03
	c-0.19-0.011-0.39-0.021-0.6-0.021c-1.55,0-2.03,0.399-2.78,1.33c-0.09,0.12-0.8,0.55-0.8,0.55c-0.23,0.189-0.42,0.46-0.42,0.9
	v0.029c0,0.371,0.31,0.69,0.62,0.78v0.05h0.12c0.15-0.619,0.63-0.92,1.21-0.92s1.06,0.301,1.21,0.92h3.23
	c0.15-0.619,0.63-0.93,1.21-0.93c0.54,0,0.99,0.34,1.17,0.82c0.25-0.131,0.42-0.4,0.42-0.711v-0.029c0-0.439-0.16-0.71-0.39-0.9"/>
<path fill="#666666" d="M35.132,74.044c0,0.586-0.476,1.062-1.062,1.062c-0.587,0-1.063-0.475-1.063-1.062s0.476-1.062,1.063-1.062
	C34.656,72.982,35.132,73.458,35.132,74.044"/>
<g>
	<path fill="#70C5B0" d="M108.906,56.988c-0.043-0.043-0.08-0.084-0.11-0.127c-0.032-0.041-0.07-0.084-0.11-0.127
		c-0.255-0.254-0.377-0.522-0.366-0.81c0.01-0.284,0.096-0.538,0.254-0.76c0.158-0.222,0.37-0.39,0.635-0.507
		c0.26-0.116,0.53-0.122,0.8-0.016c0.34-0.043,0.66,0.037,0.96,0.237c0.3,0.2,0.46,0.522,0.46,0.968
		c1.08,1.289,2.09,2.56,3.04,3.805c0.95,1.248,1.81,2.57,2.6,3.965c0.36,0.634,0.69,1.285,1,1.949c0.3,0.668,0.59,1.341,0.87,2.016
		c0-0.867,0.03-1.723,0.11-2.57c0.07-0.844,0.16-1.71,0.27-2.6c0.23-1.818,0.46-3.632,0.68-5.439c0.22-1.808,0.34-3.641,0.36-5.502
		c0-0.4,0.13-0.703,0.39-0.904c0.26-0.2,0.55-0.301,0.87-0.301c0.32,0,0.61,0.101,0.87,0.301c0.26,0.199,0.39,0.502,0.39,0.904
		c-0.02,1.902-0.15,3.779-0.4,5.629c-0.25,1.851-0.48,3.707-0.72,5.566c-0.1,0.95-0.19,1.887-0.25,2.807
		c-0.06,0.92-0.08,1.855-0.06,2.808c0.02,0.909,0.05,1.808,0.08,2.696c0.03,0.888,0.02,1.787-0.02,2.695
		c-0.02,0.317-0.12,0.576-0.3,0.777c-0.18,0.199-0.39,0.33-0.65,0.39c-0.26,0.06-0.51,0.05-0.76-0.03
		c-0.25-0.09-0.46-0.26-0.63-0.51c-0.49-0.74-0.9-1.52-1.24-2.33c-0.34-0.82-0.66-1.63-0.95-2.43c-0.3-0.78-0.6-1.54-0.92-2.27
		c-0.32-0.73-0.68-1.461-1.08-2.181c-0.53-0.95-1.09-1.86-1.7-2.729c-0.61-0.87-1.24-1.721-1.92-2.541v2.551
		c0,0,0.02,1.68,0.06,2.55c0.04,1.521,0.14,3.03,0.31,4.521s0.35,2.979,0.54,4.49c0.04,0.359-0.08,0.659-0.37,0.899
		c-0.28,0.239-0.57,0.36-0.87,0.36c-0.38,0-0.675-0.121-0.89-0.371c-0.21-0.25-0.34-0.549-0.38-0.909c-0.21-1.5-0.4-3-0.57-4.49
		c-0.17-1.489-0.27-3-0.314-4.521c-0.04-1.33-0.06-2.659-0.05-3.979c0.01-1.319,0.02-2.649,0.02-3.979L108.906,56.988z
		 M124.798,63.27c0.4-0.55,0.883-1.037,1.443-1.459c0.56-0.424,1.16-0.756,1.8-1c0.64-0.242,1.29-0.371,1.97-0.381
		c0.68-0.01,1.36,0.122,2.03,0.396c0.66,0.254,1.25,0.598,1.78,1.029c0.53,0.436,0.94,0.99,1.24,1.666
		c0.24,0.509,0.37,1.059,0.42,1.65c0.04,0.59-0.11,1.13-0.47,1.617c-0.31,0.439-0.7,0.779-1.15,1.01c-0.45,0.23-0.94,0.4-1.46,0.5
		c-0.51,0.1-1.04,0.16-1.58,0.16c-0.54,0-1.05-0.01-1.54-0.04c-0.55-0.021-1.09-0.069-1.63-0.13L126,68.1
		c0.17,0.95,0.507,1.801,1.015,2.541c0.508,0.739,1.198,1.299,2.066,1.68c0.24,0.08,0.42,0.149,0.54,0.189
		c0.07,0.021,0.12,0.04,0.18,0.051c0.06,0.01,0.11,0.01,0.18,0.01l0.43,0.05c0,0,0.23,0.003,0.34-0.019
		c0.15-0.02,0.25-0.037,0.3-0.047c0.05-0.011,0.11-0.027,0.18-0.051c0.23-0.061,0.44-0.135,0.62-0.22c0.18-0.084,0.4-0.22,0.65-0.41
		c0.13-0.106,0.3-0.267,0.51-0.478s0.39-0.4,0.54-0.57c0.21-0.297,0.47-0.5,0.78-0.6c0.31-0.11,0.62-0.068,0.94,0.121
		c0.28,0.17,0.47,0.43,0.59,0.78s0.07,0.67-0.14,0.97c-0.61,0.82-1.34,1.53-2.17,2.11s-1.79,0.89-2.87,0.931
		c-0.86,0.043-1.7-0.111-2.5-0.461c-0.8-0.35-1.51-0.82-2.12-1.41c-0.76-0.74-1.36-1.594-1.81-2.566
		c-0.44-0.971-0.68-1.971-0.73-2.98c-0.19-0.15-0.33-0.33-0.42-0.55c-0.09-0.22-0.12-0.45-0.09-0.68c0.03-0.23,0.11-0.45,0.24-0.65
		s0.32-0.33,0.57-0.399c0.24-0.78,0.6-1.51,1.08-2.19L124.798,63.27z M132.41,64.03c-0.233-0.296-0.593-0.561-1.08-0.794
		c-0.4-0.17-0.87-0.254-1.41-0.254s-1,0.096-1.38,0.287c-0.486,0.229-0.92,0.549-1.3,0.959c-0.38,0.41-0.688,0.871-0.92,1.381
		l1.522,0.189c0.507,0.061,1.015,0.1,1.522,0.12h0.824c0,0,0.55-0.01,0.825-0.03c0.084,0,0.163-0.01,0.237-0.02
		s0.153-0.02,0.238-0.02c0.19-0.051,0.333-0.07,0.428-0.08c0.096-0.011,0.195-0.041,0.302-0.08c0.084-0.021,0.19-0.061,0.317-0.101
		c0.105-0.04,0.17-0.08,0.19-0.1c0.02-0.021,0.052-0.05,0.095-0.07l0.095-0.38c-0.042-0.09-0.068-0.17-0.08-0.24
		c-0.01-0.08-0.036-0.14-0.078-0.21c-0.02-0.06-0.07-0.159-0.143-0.29c-0.072-0.13-0.14-0.23-0.204-0.32V64.03z"/>
	<path fill="#70C5B0" d="M146.43,64.505c0.402,0,0.704,0.127,0.905,0.38c0.2,0.254,0.3,0.54,0.3,0.857c0,0.316-0.1,0.607-0.3,0.873
		c-0.2,0.265-0.503,0.396-0.904,0.396c-0.5,0.03-1.01,0.021-1.5-0.01c-0.49-0.03-0.99-0.069-1.47-0.11c0.02,1.67,0,3.34-0.08,5.01
		c-0.07,1.67-0.25,3.33-0.52,4.98c-0.04,0.36-0.23,0.63-0.57,0.79c-0.34,0.17-0.66,0.2-0.98,0.101c-0.36-0.101-0.6-0.301-0.74-0.58
		c-0.14-0.28-0.17-0.61-0.11-0.961c0.26-1.6,0.4-3.209,0.43-4.819c0.03-1.61,0.03-3.22-0.01-4.851c-0.8-0.119-1.61-0.26-2.44-0.39
		c-0.82-0.14-1.64-0.26-2.44-0.37c-0.36-0.04-0.62-0.24-0.77-0.58c-0.16-0.35-0.2-0.67-0.11-0.97c0.1-0.36,0.31-0.61,0.6-0.74
		c0.3-0.13,0.62-0.18,0.95-0.14c0.7,0.109,1.4,0.22,2.1,0.34c0.7,0.12,1.41,0.23,2.13,0.34c-0.02-0.109-0.03-0.27-0.03-0.48
		c0-1.899-0.01-3.779-0.02-5.639c-0.01-1.861,0.08-3.74,0.27-5.641c0.04-0.34,0.18-0.63,0.4-0.891c0.22-0.26,0.51-0.379,0.87-0.379
		c0.32,0,0.62,0.129,0.9,0.379c0.28,0.25,0.41,0.551,0.37,0.891c-0.21,2.029-0.31,4.04-0.3,6.04c0.01,2,0.03,4.021,0.08,6.08
		c0.51,0.04,1.02,0.08,1.52,0.11c0.5,0.029,1.02,0.049,1.52,0.049L146.43,64.505z M167.175,63.365
		c-0.127,0.59-0.275,1.18-0.444,1.76s-0.35,1.157-0.57,1.73c-0.23,0.59-0.45,1.177-0.66,1.76c-0.21,0.58-0.46,1.145-0.76,1.695
		c-0.27,0.529-0.57,1.041-0.89,1.539c-0.31,0.496-0.59,1.021-0.82,1.57c-0.21,0.486-0.42,0.966-0.65,1.441
		c-0.22,0.477-0.5,0.926-0.84,1.349c-0.17,0.21-0.36,0.338-0.57,0.38c-0.21,0.043-0.42,0.027-0.62-0.047
		c-0.2-0.074-0.39-0.195-0.57-0.365c-0.18-0.17-0.3-0.35-0.36-0.539c-0.36-0.994-0.62-1.992-0.79-2.996s-0.39-2.015-0.66-3.031
		c-0.06-0.295-0.13-0.579-0.2-0.854c-0.07-0.274-0.15-0.55-0.24-0.825c-0.17,0.487-0.35,0.963-0.55,1.428
		c-0.2,0.459-0.42,0.939-0.65,1.42c-0.25,0.479-0.51,0.979-0.76,1.49c-0.25,0.51-0.52,1-0.79,1.489c-0.23,0.49-0.5,0.931-0.82,1.351
		c-0.31,0.41-0.69,0.76-1.14,1.06c-0.36,0.229-0.72,0.25-1.09,0.06c-0.37-0.189-0.62-0.47-0.74-0.83
		c-0.31-0.949-0.6-1.92-0.85-2.899l-0.76-2.95c-0.25-0.99-0.52-1.96-0.79-2.92s-0.59-1.92-0.95-2.87
		c-0.13-0.319-0.09-0.63,0.11-0.94c0.2-0.31,0.45-0.52,0.75-0.619c0.36-0.11,0.68-0.061,0.97,0.13c0.29,0.19,0.48,0.44,0.59,0.76
		c0.59,1.521,1.08,3.05,1.46,4.601c0.38,1.539,0.78,3.1,1.2,4.66l0.19-0.381l0.68-1.369l0.68-1.371c0.26-0.489,0.48-0.989,0.69-1.51
		c0.2-0.52,0.39-1.039,0.56-1.57c0.17-0.51,0.33-1.02,0.48-1.529s0.24-1.04,0.29-1.59c0.02-0.34,0.15-0.61,0.37-0.83
		c0.22-0.21,0.48-0.34,0.76-0.381c0.29-0.039,0.56,0,0.81,0.141c0.26,0.141,0.44,0.38,0.54,0.74c0.3,1.08,0.61,2.14,0.92,3.199
		c0.32,1.061,0.61,2.121,0.86,3.201c0.107,0.449,0.2,0.89,0.287,1.319c0.08,0.44,0.18,0.86,0.28,1.29c0.23-0.51,0.5-1,0.81-1.48
		c0.3-0.479,0.58-0.97,0.84-1.47c0.46-0.96,0.87-1.96,1.22-3s0.63-2.09,0.84-3.13c0.06-0.359,0.26-0.62,0.59-0.79
		c0.32-0.17,0.65-0.2,0.97-0.09c0.36,0.101,0.61,0.31,0.76,0.601c0.145,0.289,0.19,0.609,0.125,0.949L167.175,63.365z
		 M175.23,60.953c0.678-0.084,1.386-0.11,2.126-0.08c0.74,0.029,1.448,0.16,2.125,0.38c0.677,0.22,1.29,0.556,1.84,1
		c0.55,0.444,0.98,1.026,1.27,1.745c0.21,0.507,0.33,1.02,0.34,1.538c0.01,0.521-0.06,1.015-0.22,1.489
		c-0.16,0.478-0.39,0.933-0.69,1.365c-0.3,0.44-0.66,0.83-1.06,1.19c-0.86,0.79-1.82,1.45-2.85,2c-1.03,0.55-2.12,0.979-3.26,1.271
		c-0.48,0.129-0.99,0.239-1.5,0.33c-0.51,0.09-1.04,0.149-1.57,0.149c-0.53,0-1.04-0.06-1.55-0.17c-0.51-0.11-0.98-0.31-1.43-0.58
		c-0.31-0.19-0.51-0.44-0.57-0.761c-0.13-0.359-0.26-0.699-0.41-1.01c-0.14-0.31-0.29-0.64-0.43-0.979
		c-0.13-0.34-0.24-0.67-0.33-1.011c-0.08-0.34-0.12-0.68-0.12-1.039c0-0.721,0.15-1.4,0.46-2.051c0.31-0.64,0.73-1.209,1.25-1.689
		c0.89-0.85,1.92-1.52,3.08-2.03c1.16-0.51,2.35-0.85,3.55-1.02L175.23,60.953z M178.815,63.682c-0.57-0.211-1.185-0.311-1.84-0.311
		c-0.697-0.02-1.395,0.05-2.093,0.21c-0.698,0.16-1.364,0.38-1.998,0.649c-0.593,0.24-1.2,0.561-1.824,0.971
		c-0.624,0.42-1.084,0.92-1.38,1.51c-0.17,0.32-0.248,0.641-0.237,0.971c0.01,0.329,0.063,0.659,0.158,0.989
		c0.1,0.33,0.23,0.66,0.39,0.99c0.16,0.33,0.3,0.649,0.43,0.97c0.34,0.09,0.55,0.13,0.64,0.13c0.04,0.021,0.1,0.03,0.16,0.03h0.16
		c0.43,0.05,0.81,0.04,1.14-0.03c0.24,0,0.53-0.04,0.89-0.12c0.55-0.1,1.08-0.25,1.59-0.43s0.98-0.37,1.4-0.58
		c0.49-0.23,0.96-0.49,1.43-0.76c0.47-0.28,0.86-0.561,1.18-0.86c0.21-0.19,0.42-0.39,0.61-0.6c0.11-0.11,0.18-0.19,0.22-0.25
		c0.11-0.14,0.19-0.261,0.26-0.33c0.07-0.07,0.12-0.16,0.16-0.271c0.09-0.149,0.13-0.26,0.13-0.35c0.02-0.04,0.04-0.09,0.05-0.16
		c0.01-0.07,0.03-0.109,0.05-0.16v-0.35c-0.021-0.08-0.03-0.15-0.03-0.189c0-0.041-0.01-0.08-0.03-0.131
		c-0.06-0.14-0.12-0.26-0.17-0.33l-0.17-0.24c0.02,0.021,0-0.01-0.08-0.1c-0.07-0.08-0.12-0.13-0.14-0.16l-0.25-0.25
		c-0.1-0.06-0.22-0.13-0.35-0.22c-0.13-0.08-0.25-0.14-0.38-0.19L178.815,63.682z M183.987,62.671c0.02-0.399,0.17-0.7,0.444-0.899
		c0.28-0.201,0.58-0.301,0.89-0.301c0.32,0,0.6,0.1,0.84,0.301c0.25,0.199,0.36,0.51,0.34,0.91c0,0.129,0,0.26-0.01,0.399
		c-0.01,0.14-0.01,0.271-0.01,0.399c0.68-0.34,1.39-0.629,2.14-0.869s1.5-0.391,2.25-0.461c0.75-0.06,1.48,0,2.189,0.181
		c0.711,0.18,1.36,0.53,1.95,1.03c0.3,0.279,0.431,0.58,0.4,0.89c-0.03,0.319-0.15,0.59-0.38,0.81c-0.221,0.221-0.5,0.36-0.84,0.41
		c-0.34,0.061-0.66-0.039-0.98-0.3c-0.23-0.19-0.49-0.33-0.77-0.41c-0.28-0.079-0.59-0.12-0.92-0.11
		c-0.33,0.011-0.65,0.051-0.98,0.11s-0.641,0.14-0.93,0.22c-1.12,0.36-2.17,0.84-3.14,1.431c0.04,1.04,0.11,2.069,0.19,3.11
		c0.09,0.869,0.159,1.76,0.22,2.68s0.25,1.8,0.54,2.619c0.13,0.391,0.101,0.711-0.08,0.971c-0.18,0.26-0.42,0.439-0.729,0.529
		c-0.3,0.091-0.62,0.07-0.95-0.06c-0.32-0.12-0.55-0.38-0.68-0.76c-0.17-0.479-0.28-0.979-0.35-1.49l-0.19-1.52
		c-0.04-0.48-0.09-0.97-0.14-1.47c-0.05-0.49-0.1-0.99-0.14-1.471c-0.1-1.14-0.17-2.279-0.2-3.41c-0.03-1.13,0-2.27,0.08-3.41
		L183.987,62.671z M196.167,68.73c-0.084-0.25-0.094-0.52-0.03-0.789c-0.15-2.551-0.31-5.101-0.477-7.621
		c-0.17-2.52-0.158-5.069,0.031-7.629c0.043-0.36,0.176-0.66,0.396-0.9c0.223-0.24,0.514-0.359,0.872-0.359
		c0.338,0,0.646,0.129,0.92,0.369s0.39,0.551,0.351,0.91c-0.17,2.311-0.19,4.58-0.064,6.84c0.127,2.25,0.266,4.53,0.412,6.84
		c1.186-0.74,2.374-1.459,3.568-2.16c1.193-0.699,2.362-1.439,3.504-2.22c0.341-0.229,0.67-0.29,0.971-0.17
		c0.311,0.12,0.54,0.32,0.699,0.591c0.16,0.279,0.221,0.579,0.181,0.92c-0.04,0.34-0.229,0.619-0.569,0.859
		c-1.141,0.78-2.301,1.52-3.471,2.2c-1.17,0.69-2.35,1.39-3.529,2.11c1.42,0.949,2.829,1.92,4.219,2.89
		c1.391,0.97,2.761,2,4.091,3.08c0.28,0.229,0.399,0.53,0.38,0.899c-0.02,0.37-0.15,0.67-0.38,0.91c-0.271,0.25-0.57,0.37-0.9,0.35
		c-0.319-0.02-0.63-0.14-0.899-0.35c-1.221-0.99-2.471-1.93-3.74-2.82c-1.27-0.89-2.551-1.77-3.86-2.66
		c0.021,0.811,0.03,1.621,0.021,2.44c-0.01,0.82-0.041,1.64-0.08,2.44c-0.021,0.43-0.16,0.74-0.43,0.939
		c-0.261,0.2-0.551,0.301-0.871,0.301c-0.319,0-0.6-0.101-0.85-0.301c-0.25-0.199-0.37-0.51-0.35-0.93
		c0.039-1.141,0.06-2.29,0.05-3.439c-0.011-1.15-0.05-2.311-0.11-3.471L196.167,68.73z"/>
</g>
<g>
	<path fill="#A2DADB" d="M116.96,29.292c-1.592,0-2.844,0.564-3.756,1.693c-0.912,1.13-1.368,2.687-1.368,4.673
		c0,2.08,0.438,3.653,1.316,4.72c0.877,1.066,2.146,1.6,3.81,1.6c0.718,0,1.414-0.072,2.086-0.215c0.673-0.143,1.372-0.326,2.1-0.55
		v2.376c-1.33,0.5-2.838,0.75-4.522,0.75c-2.48,0-4.388-0.75-5.717-2.26c-1.33-1.51-2-3.66-2-6.46c0-1.77,0.32-3.31,0.97-4.63
		c0.64-1.33,1.58-2.34,2.8-3.04c1.22-0.71,2.65-1.06,4.3-1.06c1.73,0,3.33,0.36,4.8,1.09l-1,2.31c-0.58-0.27-1.18-0.51-1.82-0.71
		c-0.64-0.21-1.31-0.31-2.02-0.31L116.96,29.292z M134.842,44.11h-2.736v-7.884c0-0.99-0.2-1.728-0.598-2.215
		c-0.398-0.487-1.03-0.729-1.896-0.729c-1.145,0-1.985,0.35-2.522,1.03s-0.806,1.83-0.806,3.44v6.37h-2.725V26.07h2.72v4.58
		c0,0.734-0.05,1.518-0.14,2.353h0.17c0.37-0.618,0.88-1.098,1.54-1.438c0.66-0.34,1.43-0.51,2.31-0.51c3.1,0,4.66,1.565,4.66,4.696
		v8.36L134.842,44.11z M137.52,27.89c0-0.487,0.134-0.862,0.4-1.125c0.266-0.263,0.647-0.394,1.143-0.394
		c0.48,0,0.852,0.14,1.12,0.4c0.266,0.27,0.398,0.64,0.398,1.13c0,0.47-0.13,0.83-0.39,1.1c-0.27,0.27-0.64,0.4-1.12,0.4
		c-0.49,0-0.87-0.13-1.14-0.4c-0.26-0.27-0.4-0.63-0.4-1.09L137.52,27.89z M140.408,44.11h-2.725V31.288h2.725V44.11z M146.08,44.11
		h-2.726V26.07h2.725L146.08,44.11L146.08,44.11z M153.352,44.343c-1.6,0-2.85-0.58-3.746-1.74s-1.345-2.786-1.345-4.88
		c0-2.104,0.46-3.74,1.37-4.912c0.91-1.17,2.17-1.75,3.78-1.75c1.69,0,2.97,0.62,3.85,1.87h0.14c-0.13-0.92-0.19-1.64-0.19-2.18
		v-4.68h2.74v18.04h-2.14l-0.47-1.68h-0.12c-0.87,1.28-2.15,1.92-3.84,1.92L153.352,44.343z M154.082,42.14
		c1.12,0,1.937-0.315,2.446-0.945c0.51-0.63,0.772-1.652,0.788-3.067v-0.382c0-1.616-0.263-2.764-0.788-3.444
		c-0.525-0.68-1.35-1.02-2.47-1.02c-0.96,0-1.697,0.388-2.215,1.165c-0.518,0.777-0.776,1.884-0.776,3.322
		c0,1.42,0.25,2.5,0.753,3.25C152.323,41.759,153.077,42.139,154.082,42.14L154.082,42.14z M169.377,31.055
		c0.55,0,1,0.04,1.356,0.116l-0.267,2.54c-0.387-0.09-0.788-0.13-1.206-0.13c-1.09,0-1.973,0.36-2.65,1.07
		c-0.676,0.71-1.014,1.64-1.014,2.77v6.71h-2.725V31.29h2.14l0.36,2.26h0.14c0.43-0.764,0.98-1.37,1.67-1.82
		c0.69-0.45,1.42-0.67,2.21-0.67L169.377,31.055z M177.76,44.343c-1.994,0-3.554-0.582-4.678-1.745
		c-1.125-1.164-1.688-2.766-1.688-4.806c0-2.095,0.52-3.74,1.565-4.94c1.04-1.198,2.47-1.797,4.3-1.797
		c1.69,0,3.03,0.514,4.01,1.542c0.98,1.028,1.47,2.443,1.47,4.244v1.48h-8.54c0.04,1.25,0.37,2.2,1.01,2.87
		c0.63,0.67,1.52,1.01,2.67,1.01c0.76,0,1.46-0.07,2.11-0.21c0.65-0.14,1.35-0.38,2.1-0.71v2.22c-0.67,0.32-1.34,0.54-2.02,0.67
		c-0.68,0.13-1.46,0.2-2.33,0.2L177.76,44.343z M177.262,33.119c-0.865,0-1.56,0.27-2.08,0.82c-0.52,0.55-0.834,1.35-0.935,2.4h5.82
		c-0.015-1.06-0.27-1.86-0.765-2.41c-0.494-0.55-1.174-0.82-2.04-0.82L177.262,33.119z M196.176,44.109h-2.736v-7.89
		c0-0.99-0.199-1.729-0.598-2.22s-1.029-0.73-1.896-0.73c-1.151,0-1.993,0.34-2.527,1.02c-0.533,0.68-0.8,1.82-0.8,3.42v6.39h-2.725
		V31.28h2.134l0.382,1.68h0.14c0.38-0.61,0.93-1.08,1.641-1.414c0.709-0.334,1.5-0.5,2.359-0.5c3.07,0,4.61,1.567,4.61,4.7v8.36
		L196.176,44.109z M201.195,27.159l0.176,0.25c-0.41,1.61-1.09,3.46-2.04,5.55h-1.97c0.539-2.24,0.92-4.17,1.16-5.81h2.68
		L201.195,27.159z M211.264,40.459c0,1.25-0.457,2.21-1.369,2.88s-2.22,1-3.92,1c-1.707,0-3.08-0.26-4.115-0.78v-2.35
		c1.5,0.69,2.91,1.04,4.199,1.04c1.68,0,2.51-0.51,2.51-1.52c0-0.33-0.1-0.6-0.279-0.81c-0.189-0.22-0.49-0.44-0.92-0.68
		c-0.43-0.24-1.02-0.49-1.78-0.79c-1.479-0.57-2.479-1.14-3-1.71c-0.521-0.58-0.79-1.32-0.79-2.23c0-1.1,0.44-1.95,1.32-2.56
		c0.88-0.61,2.09-0.91,3.609-0.91c1.5,0,2.931,0.3,4.271,0.91l-0.88,2.05c-1.38-0.58-2.551-0.86-3.49-0.86
		c-1.439,0-2.16,0.41-2.16,1.23c0,0.4,0.19,0.74,0.561,1.02c0.369,0.28,1.189,0.66,2.449,1.15c1.061,0.41,1.83,0.78,2.311,1.12
		c0.48,0.34,0.83,0.73,1.061,1.18c0.229,0.44,0.35,0.98,0.35,1.59L211.264,40.459z M225.98,29.289c-1.595,0-2.847,0.56-3.758,1.69
		c-0.912,1.13-1.369,2.68-1.369,4.67c0,2.08,0.438,3.65,1.316,4.72c0.877,1.06,2.146,1.6,3.811,1.6c0.718,0,1.414-0.07,2.086-0.22
		s1.371-0.33,2.1-0.55v2.37c-1.33,0.5-2.838,0.75-4.521,0.75c-2.48,0-4.389-0.76-5.718-2.26c-1.329-1.51-1.993-3.66-1.993-6.46
		c0-1.77,0.321-3.31,0.967-4.63c0.65-1.33,1.58-2.34,2.811-3.04c1.221-0.71,2.66-1.06,4.3-1.06c1.73,0,3.33,0.36,4.8,1.09
		l-0.99,2.31c-0.569-0.27-1.17-0.51-1.81-0.72s-1.31-0.31-2.01-0.31L225.98,29.289z M243.953,37.669c0,2.09-0.537,3.73-1.612,4.9
		c-1.069,1.17-2.569,1.76-4.479,1.76c-1.2,0-2.25-0.27-3.17-0.81s-1.621-1.32-2.121-2.33c-0.489-1.02-0.739-2.19-0.739-3.53
		c0-2.08,0.53-3.71,1.601-4.87c1.069-1.17,2.569-1.75,4.51-1.75c1.859,0,3.33,0.59,4.41,1.79c1.08,1.19,1.629,2.8,1.629,4.82
		L243.953,37.669z M234.619,37.669c0,2.96,1.09,4.44,3.279,4.44c2.16,0,3.24-1.48,3.24-4.44c0-2.93-1.09-4.4-3.27-4.4
		c-1.15,0-1.98,0.38-2.49,1.13c-0.52,0.76-0.77,1.84-0.77,3.26L234.619,37.669z M256.939,44.099h-2.74v-7.9
		c0-0.98-0.19-1.72-0.561-2.2c-0.369-0.49-0.949-0.73-1.74-0.73c-1.049,0-1.819,0.34-2.31,1.03c-0.489,0.69-0.739,1.82-0.739,3.41
		v6.39h-2.73V31.29h2.13l0.38,1.682h0.141c0.35-0.613,0.869-1.084,1.539-1.417s1.42-0.5,2.23-0.5c1.97,0,3.27,0.673,3.92,2.02h0.18
		c0.381-0.635,0.91-1.13,1.6-1.485c0.69-0.356,1.471-0.534,2.361-0.534c1.529,0,2.639,0.386,3.34,1.16
		c0.699,0.772,1.049,1.95,1.049,3.536v8.36h-2.719V36.2c0-0.98-0.19-1.713-0.561-2.196c-0.38-0.483-0.96-0.725-1.75-0.725
		c-1.061,0-1.84,0.33-2.33,0.99s-0.74,1.67-0.74,3.04v6.79H256.939z M278.689,44.099h-2.74v-7.9c0-0.98-0.19-1.72-0.561-2.2
		c-0.369-0.49-0.949-0.73-1.74-0.73c-1.06,0-1.83,0.34-2.319,1.03c-0.49,0.69-0.74,1.82-0.74,3.41v6.39h-2.729V31.29H270
		l0.384,1.682h0.14c0.354-0.613,0.871-1.084,1.551-1.417s1.42-0.5,2.23-0.5c1.969,0,3.276,0.673,3.92,2.02h0.185
		c0.37-0.635,0.909-1.13,1.6-1.485c0.681-0.356,1.47-0.534,2.36-0.534c1.529,0,2.64,0.386,3.34,1.16c0.7,0.772,1.05,1.95,1.05,3.536
		v8.36h-2.729V36.2c0-0.98-0.19-1.713-0.57-2.196s-0.96-0.725-1.75-0.725c-1.061,0-1.84,0.33-2.33,0.99s-0.74,1.67-0.74,3.04v6.79
		H278.689z M298.679,44.099l-0.39-1.68h-0.141c-0.38,0.59-0.92,1.06-1.619,1.4c-0.7,0.34-1.5,0.51-2.4,0.51
		c-1.561,0-2.72-0.39-3.48-1.16c-0.77-0.78-1.149-1.95-1.149-3.52v-8.38h2.739v7.91c0,0.98,0.201,1.71,0.601,2.21
		c0.399,0.49,1.03,0.73,1.89,0.73c1.141,0,1.98-0.35,2.521-1.03c0.54-0.69,0.81-1.83,0.81-3.44v-6.39h2.73V44.1h-2.141
		L298.679,44.099z M315.039,44.099h-2.74v-7.88c0-0.99-0.2-1.729-0.6-2.22c-0.4-0.49-1.03-0.73-1.9-0.73c-1.15,0-2,0.34-2.53,1.02
		c-0.54,0.68-0.8,1.82-0.8,3.42v6.39h-2.729V31.28h2.13l0.38,1.682h0.14c0.38-0.614,0.931-1.085,1.641-1.418s1.5-0.5,2.359-0.5
		c3.07,0,4.61,1.565,4.61,4.696v8.36L315.039,44.099z M317.719,27.879c0-0.49,0.13-0.87,0.4-1.13c0.27-0.26,0.64-0.4,1.14-0.4
		c0.48,0,0.851,0.13,1.12,0.39c0.26,0.26,0.39,0.63,0.39,1.12c0,0.46-0.14,0.83-0.399,1.1s-0.641,0.4-1.12,0.4
		c-0.5,0-0.88-0.14-1.15-0.4c-0.27-0.27-0.399-0.64-0.399-1.1L317.719,27.879z M320.599,44.099h-2.729V31.28h2.72v12.83
		L320.599,44.099z M328.319,42.129c0.659,0,1.329-0.11,1.989-0.32v2.05c-0.3,0.13-0.689,0.24-1.17,0.33
		c-0.479,0.09-0.97,0.13-1.479,0.13c-2.58,0-3.88-1.36-3.88-4.08v-6.91h-1.75v-1.2l1.88-1l0.92-2.72h1.68v2.85h3.65v2.06h-3.66v6.87
		c0,0.65,0.16,1.14,0.49,1.45c0.329,0.31,0.76,0.47,1.29,0.47L328.319,42.129z"/>
	<path fill="#A2DADB" d="M329.997,31.287h2.97l2.607,7.27c0.395,1.037,0.657,2.01,0.79,2.923h0.092
		c0.07-0.425,0.196-0.94,0.382-1.548c0.187-0.608,1.168-3.488,2.945-8.645h2.945l-5.484,14.529c-0.997,2.666-2.66,4-4.986,4
		c-0.603,0-1.189-0.066-1.762-0.197v-2.16c0.41,0.09,0.877,0.141,1.402,0.141c1.313,0,2.237-0.771,2.77-2.291l0.477-1.209
		l-5.147-12.83V31.287z"/>
</g>
</svg>
